<?xml version="1.0" encoding="us-ascii" standalone="no"?><svg xmlns="http://www.w3.org/2000/svg" xmlns:xlink="http://www.w3.org/1999/xlink" contentStyleType="text/css" height="3053.125px" preserveAspectRatio="none" style="width:3900px;height:3053px;background:#FFFFFF;" version="1.1" viewBox="0 0 3900 3053" width="3900px" zoomAndPan="magnify"><defs/><g><rect fill="none" height="83.6548" style="stroke:#000000;stroke-width:2.34375;" width="624.2188" x="749.2188" y="543.5669"/><rect fill="none" height="411.6943" style="stroke:#000000;stroke-width:2.34375;" width="1810.1563" x="749.2188" y="942.4683"/><rect fill="none" height="83.6548" style="stroke:#000000;stroke-width:2.34375;" width="467.1875" x="1779.6875" y="1158.4717"/><rect fill="none" height="134.2041" style="stroke:#000000;stroke-width:2.34375;" width="1133.5938" x="749.2188" y="1446.8994"/><rect fill="none" height="83.6548" style="stroke:#000000;stroke-width:2.34375;" width="389.0625" x="2543.75" y="1770.105"/><rect fill="none" height="184.7534" style="stroke:#000000;stroke-width:2.34375;" width="2654.6875" x="749.2188" y="2538.3301"/><line style="stroke:#181818;stroke-width:0.78125;stroke-dasharray:5.0,5.0;" x1="115.625" x2="115.625" y1="132.2021" y2="3043.0176"/><line style="stroke:#181818;stroke-width:0.78125;stroke-dasharray:5.0,5.0;" x1="482.0313" x2="482.0313" y1="211.5845" y2="3043.0176"/><line style="stroke:#181818;stroke-width:0.78125;stroke-dasharray:5.0,5.0;" x1="836.7188" x2="836.7188" y1="378.7109" y2="3043.0176"/><line style="stroke:#181818;stroke-width:0.78125;stroke-dasharray:5.0,5.0;" x1="1151.5625" x2="1151.5625" y1="132.2021" y2="3043.0176"/><line style="stroke:#181818;stroke-width:0.78125;stroke-dasharray:5.0,5.0;" x1="1298.4375" x2="1298.4375" y1="132.2021" y2="3043.0176"/><line style="stroke:#181818;stroke-width:0.78125;stroke-dasharray:5.0,5.0;" x1="1481.25" x2="1481.25" y1="132.2021" y2="3043.0176"/><line style="stroke:#181818;stroke-width:0.78125;stroke-dasharray:5.0,5.0;" x1="1692.1875" x2="1692.1875" y1="132.2021" y2="3043.0176"/><line style="stroke:#181818;stroke-width:0.78125;stroke-dasharray:5.0,5.0;" x1="1831.25" x2="1831.25" y1="132.2021" y2="3043.0176"/><line style="stroke:#181818;stroke-width:0.78125;stroke-dasharray:5.0,5.0;" x1="2120.3125" x2="2120.3125" y1="132.2021" y2="3043.0176"/><line style="stroke:#181818;stroke-width:0.78125;stroke-dasharray:5.0,5.0;" x1="2331.25" x2="2331.25" y1="132.2021" y2="3043.0176"/><line style="stroke:#181818;stroke-width:0.78125;stroke-dasharray:5.0,5.0;" x1="2503.125" x2="2503.125" y1="132.2021" y2="3043.0176"/><line style="stroke:#181818;stroke-width:0.78125;stroke-dasharray:5.0,5.0;" x1="2626.5625" x2="2626.5625" y1="1726.6602" y2="3043.0176"/><line style="stroke:#181818;stroke-width:0.78125;stroke-dasharray:5.0,5.0;" x1="2841.4063" x2="2841.4063" y1="132.2021" y2="3043.0176"/><line style="stroke:#181818;stroke-width:0.78125;stroke-dasharray:5.0,5.0;" x1="2999.2188" x2="2999.2188" y1="1999.3164" y2="3043.0176"/><line style="stroke:#181818;stroke-width:0.78125;stroke-dasharray:5.0,5.0;" x1="3203.9063" x2="3203.9063" y1="132.2021" y2="3043.0176"/><line style="stroke:#181818;stroke-width:0.78125;stroke-dasharray:5.0,5.0;" x1="3361.7188" x2="3361.7188" y1="132.2021" y2="3043.0176"/><line style="stroke:#181818;stroke-width:0.78125;stroke-dasharray:5.0,5.0;" x1="3502.3438" x2="3502.3438" y1="132.2021" y2="3043.0176"/><line style="stroke:#181818;stroke-width:0.78125;stroke-dasharray:5.0,5.0;" x1="3758.5938" x2="3758.5938" y1="132.2021" y2="3043.0176"/><text fill="#000000" font-family="sans-serif" font-size="21.875" lengthAdjust="spacing" textLength="204.6875" x="9.375" y="125.8331">Encargado de Bolsin</text><ellipse cx="116.4063" cy="21.0938" fill="#E2E2F0" rx="12.5" ry="12.5" style="stroke:#181818;stroke-width:0.78125;"/><path d="M116.4063,33.5938 L116.4063,75.7813 M96.0938,46.0938 L136.7188,46.0938 M116.4063,75.7813 L96.0938,99.2188 M116.4063,75.7813 L136.7188,99.2188 " fill="none" style="stroke:#181818;stroke-width:0.78125;"/><text fill="#000000" font-family="sans-serif" font-size="21.875" lengthAdjust="spacing" textLength="134.375" x="1079.6875" y="125.8331">Actual:Sesion</text><ellipse cx="1151.5625" cy="76.5625" fill="#E2E2F0" rx="18.75" ry="18.75" style="stroke:#181818;stroke-width:0.78125;"/><line style="stroke:#181818;stroke-width:0.78125;" x1="1132.8125" x2="1170.3125" y1="98.4375" y2="98.4375"/><text fill="#000000" font-family="sans-serif" font-size="21.875" lengthAdjust="spacing" textLength="104.6875" x="1242.1875" y="125.8331">:Empleado</text><ellipse cx="1299.2188" cy="76.5625" fill="#E2E2F0" rx="18.75" ry="18.75" style="stroke:#181818;stroke-width:0.78125;"/><line style="stroke:#181818;stroke-width:0.78125;" x1="1280.4688" x2="1317.9688" y1="98.4375" y2="98.4375"/><text fill="#000000" font-family="sans-serif" font-size="21.875" lengthAdjust="spacing" textLength="204.6875" x="1375" y="125.8331">Logueado:Empleado</text><ellipse cx="1482.0313" cy="76.5625" fill="#E2E2F0" rx="18.75" ry="18.75" style="stroke:#181818;stroke-width:0.78125;"/><line style="stroke:#181818;stroke-width:0.78125;" x1="1463.2813" x2="1500.7813" y1="98.4375" y2="98.4375"/><text fill="#000000" font-family="sans-serif" font-size="21.875" lengthAdjust="spacing" textLength="160.9375" x="1607.8125" y="125.8331">ComisionMedica</text><ellipse cx="1692.9688" cy="76.5625" fill="#E2E2F0" rx="18.75" ry="18.75" style="stroke:#181818;stroke-width:0.78125;"/><line style="stroke:#181818;stroke-width:0.78125;" x1="1674.2188" x2="1711.7188" y1="98.4375" y2="98.4375"/><text fill="#000000" font-family="sans-serif" font-size="21.875" lengthAdjust="spacing" textLength="59.375" x="1796.875" y="125.8331">Bolsin</text><ellipse cx="1831.25" cy="76.5625" fill="#E2E2F0" rx="18.75" ry="18.75" style="stroke:#181818;stroke-width:0.78125;"/><line style="stroke:#181818;stroke-width:0.78125;" x1="1812.5" x2="1850" y1="98.4375" y2="98.4375"/><text fill="#000000" font-family="sans-serif" font-size="21.875" lengthAdjust="spacing" textLength="150" x="2040.625" y="125.8331">Cambio Estado</text><ellipse cx="2120.3125" cy="76.5625" fill="#E2E2F0" rx="18.75" ry="18.75" style="stroke:#181818;stroke-width:0.78125;"/><line style="stroke:#181818;stroke-width:0.78125;" x1="2101.5625" x2="2139.0625" y1="98.4375" y2="98.4375"/><text fill="#000000" font-family="sans-serif" font-size="21.875" lengthAdjust="spacing" textLength="217.1875" x="2218.75" y="125.8331">Actual:Cambio Estado</text><ellipse cx="2332.0313" cy="76.5625" fill="#E2E2F0" rx="18.75" ry="18.75" style="stroke:#181818;stroke-width:0.78125;"/><line style="stroke:#181818;stroke-width:0.78125;" x1="2313.2813" x2="2350.7813" y1="98.4375" y2="98.4375"/><text fill="#000000" font-family="sans-serif" font-size="21.875" lengthAdjust="spacing" textLength="68.75" x="2464.0625" y="125.8331">Estado</text><ellipse cx="2503.125" cy="76.5625" fill="#E2E2F0" rx="18.75" ry="18.75" style="stroke:#181818;stroke-width:0.78125;"/><line style="stroke:#181818;stroke-width:0.78125;" x1="2484.375" x2="2521.875" y1="98.4375" y2="98.4375"/><text fill="#000000" font-family="sans-serif" font-size="21.875" lengthAdjust="spacing" textLength="128.125" x="2772.6563" y="125.8331">GPS Tracker</text><ellipse cx="2841.4063" cy="21.0938" fill="#E2E2F0" rx="12.5" ry="12.5" style="stroke:#181818;stroke-width:0.78125;"/><path d="M2841.4063,33.5938 L2841.4063,75.7813 M2821.0938,46.0938 L2861.7188,46.0938 M2841.4063,75.7813 L2821.0938,99.2188 M2841.4063,75.7813 L2861.7188,99.2188 " fill="none" style="stroke:#181818;stroke-width:0.78125;"/><text fill="#000000" font-family="sans-serif" font-size="21.875" lengthAdjust="spacing" textLength="220.3125" x="3089.8438" y="125.8331">Servidor Google Maps</text><ellipse cx="3204.6875" cy="21.0938" fill="#E2E2F0" rx="12.5" ry="12.5" style="stroke:#181818;stroke-width:0.78125;"/><path d="M3204.6875,33.5938 L3204.6875,75.7813 M3184.375,46.0938 L3225,46.0938 M3204.6875,75.7813 L3184.375,99.2188 M3204.6875,75.7813 L3225,99.2188 " fill="none" style="stroke:#181818;stroke-width:0.78125;"/><text fill="#000000" font-family="sans-serif" font-size="21.875" lengthAdjust="spacing" textLength="39.0625" x="3338.2813" y="125.8331">:Rol</text><ellipse cx="3362.5" cy="76.5625" fill="#E2E2F0" rx="18.75" ry="18.75" style="stroke:#181818;stroke-width:0.78125;"/><line style="stroke:#181818;stroke-width:0.78125;" x1="3343.75" x2="3381.25" y1="98.4375" y2="98.4375"/><text fill="#000000" font-family="sans-serif" font-size="21.875" lengthAdjust="spacing" textLength="185.9375" x="3405.4688" y="125.8331">Gerente:Empleado</text><ellipse cx="3503.125" cy="76.5625" fill="#E2E2F0" rx="18.75" ry="18.75" style="stroke:#181818;stroke-width:0.78125;"/><line style="stroke:#181818;stroke-width:0.78125;" x1="3484.375" x2="3521.875" y1="98.4375" y2="98.4375"/><text fill="#000000" font-family="sans-serif" font-size="21.875" lengthAdjust="spacing" textLength="270.3125" x="3619.5313" y="125.8331">NotificarUbicacionBolsin:CU</text><ellipse cx="3759.375" cy="76.5625" fill="#E2E2F0" rx="18.75" ry="18.75" style="stroke:#181818;stroke-width:0.78125;"/><line style="stroke:#181818;stroke-width:0.78125;" x1="3740.625" x2="3778.125" y1="98.4375" y2="98.4375"/><polygon fill="#181818" points="388.2813,179.6265,403.9063,185.8765,388.2813,192.1265,394.5313,185.8765" style="stroke:#181818;stroke-width:1.5625;"/><line style="stroke:#181818;stroke-width:1.5625;stroke-dasharray:2.0,2.0;" x1="116.4063" x2="397.6563" y1="185.8765" y2="185.8765"/><text fill="#000000" font-family="sans-serif" font-size="20.3125" lengthAdjust="spacing" textLength="246.875" x="128.9063" y="176.7258">opcionConsultarUbicacion()</text><text fill="#000000" font-family="sans-serif" font-size="21.875" lengthAdjust="spacing" textLength="145.3125" x="405.4688" y="222.0978">Pantalla Bolsin</text><path d="M450.7813,154.0771 L450.7813,191.5771 M450.7813,172.8271 L477.3438,172.8271 " fill="none" style="stroke:#181818;stroke-width:0.78125;"/><ellipse cx="496.0938" cy="172.8271" fill="#E2E2F0" rx="18.75" ry="18.75" style="stroke:#181818;stroke-width:0.78125;"/><line style="stroke:#181818;stroke-width:1.5625;" x1="482.8125" x2="548.4375" y1="282.1411" y2="282.1411"/><line style="stroke:#181818;stroke-width:1.5625;" x1="548.4375" x2="548.4375" y1="282.1411" y2="302.4536"/><line style="stroke:#181818;stroke-width:1.5625;" x1="484.375" x2="548.4375" y1="302.4536" y2="302.4536"/><polygon fill="#181818" points="500,296.2036,484.375,302.4536,500,308.7036,493.75,302.4536" style="stroke:#181818;stroke-width:1.5625;"/><text fill="#000000" font-family="sans-serif" font-size="20.3125" lengthAdjust="spacing" textLength="156.25" x="495.3125" y="272.9904">habilitarPantalla()</text><polygon fill="#181818" points="749.2188,346.7529,764.8438,353.0029,749.2188,359.2529,755.4688,353.0029" style="stroke:#181818;stroke-width:1.5625;"/><line style="stroke:#181818;stroke-width:1.5625;stroke-dasharray:2.0,2.0;" x1="482.8125" x2="758.5938" y1="353.0029" y2="353.0029"/><text fill="#000000" font-family="sans-serif" font-size="20.3125" lengthAdjust="spacing" textLength="184.375" x="495.3125" y="343.8522">consultarUbicacion()</text><text fill="#000000" font-family="sans-serif" font-size="21.875" lengthAdjust="spacing" textLength="132.8125" x="766.4063" y="389.2242">Gestor Bolsin</text><ellipse cx="837.5" cy="339.9536" fill="#E2E2F0" rx="18.75" ry="18.75" style="stroke:#181818;stroke-width:0.78125;"/><polygon fill="#181818" points="831.25,321.2036,840.625,313.3911,837.5,321.2036,840.625,329.0161,831.25,321.2036" style="stroke:#181818;stroke-width:1.5625;"/><line style="stroke:#181818;stroke-width:1.5625;" x1="837.5" x2="903.125" y1="449.2676" y2="449.2676"/><line style="stroke:#181818;stroke-width:1.5625;" x1="903.125" x2="903.125" y1="449.2676" y2="469.5801"/><line style="stroke:#181818;stroke-width:1.5625;" x1="839.0625" x2="903.125" y1="469.5801" y2="469.5801"/><polygon fill="#181818" points="854.6875,463.3301,839.0625,469.5801,854.6875,475.8301,848.4375,469.5801" style="stroke:#181818;stroke-width:1.5625;"/><text fill="#000000" font-family="sans-serif" font-size="20.3125" lengthAdjust="spacing" textLength="251.5625" x="850" y="440.1169">buscarEmpleadoLogueado()</text><polygon fill="#181818" points="1132.8125,513.8794,1148.4375,520.1294,1132.8125,526.3794,1139.0625,520.1294" style="stroke:#181818;stroke-width:1.5625;"/><line style="stroke:#181818;stroke-width:1.5625;" x1="837.5" x2="1142.1875" y1="520.1294" y2="520.1294"/><text fill="#000000" font-family="sans-serif" font-size="20.3125" lengthAdjust="spacing" textLength="109.375" x="850" y="510.9787">getUsuario()</text><path d="M749.2188,543.5669 L866.4063,543.5669 L866.4063,559.7412 L850.7813,575.3662 L749.2188,575.3662 L749.2188,543.5669 " fill="#EEEEEE" style="stroke:#000000;stroke-width:2.34375;"/><rect fill="none" height="83.6548" style="stroke:#000000;stroke-width:2.34375;" width="624.2188" x="749.2188" y="543.5669"/><text fill="#000000" font-family="sans-serif" font-size="20.3125" font-weight="bold" lengthAdjust="spacing" textLength="43.75" x="774.2188" y="567.778">loop</text><text fill="#000000" font-family="sans-serif" font-size="17.1875" font-weight="bold" lengthAdjust="spacing" textLength="257.8125" x="891.4063" y="566.0965">[Mientras existan empleados]</text><polygon fill="#181818" points="1280.4688,608.4717,1296.0938,614.7217,1280.4688,620.9717,1286.7188,614.7217" style="stroke:#181818;stroke-width:1.5625;"/><line style="stroke:#181818;stroke-width:1.5625;" x1="837.5" x2="1289.8438" y1="614.7217" y2="614.7217"/><text fill="#000000" font-family="sans-serif" font-size="20.3125" lengthAdjust="spacing" textLength="125" x="850" y="605.571">esTuUsuario()</text><line style="stroke:#181818;stroke-width:1.5625;" x1="837.5" x2="903.125" y1="676.2085" y2="676.2085"/><line style="stroke:#181818;stroke-width:1.5625;" x1="903.125" x2="903.125" y1="676.2085" y2="696.521"/><line style="stroke:#181818;stroke-width:1.5625;" x1="839.0625" x2="903.125" y1="696.521" y2="696.521"/><polygon fill="#181818" points="854.6875,690.271,839.0625,696.521,854.6875,702.771,848.4375,696.521" style="stroke:#181818;stroke-width:1.5625;"/><text fill="#000000" font-family="sans-serif" font-size="20.3125" lengthAdjust="spacing" textLength="282.8125" x="850" y="667.0578">buscarCMEmpleadoLogueado()</text><polygon fill="#181818" points="1463.2813,740.8203,1478.9063,747.0703,1463.2813,753.3203,1469.5313,747.0703" style="stroke:#181818;stroke-width:1.5625;"/><line style="stroke:#181818;stroke-width:1.5625;" x1="837.5" x2="1472.6563" y1="747.0703" y2="747.0703"/><text fill="#000000" font-family="sans-serif" font-size="20.3125" lengthAdjust="spacing" textLength="71.875" x="850" y="737.9196">getCM()</text><polygon fill="#181818" points="1674.2188,791.3696,1689.8438,797.6196,1674.2188,803.8696,1680.4688,797.6196" style="stroke:#181818;stroke-width:1.5625;"/><line style="stroke:#181818;stroke-width:1.5625;" x1="1482.0313" x2="1683.5938" y1="797.6196" y2="797.6196"/><text fill="#000000" font-family="sans-serif" font-size="20.3125" lengthAdjust="spacing" textLength="110.9375" x="1494.5313" y="788.4689">getNombre()</text><polygon fill="#181818" points="500,841.9189,484.375,848.1689,500,854.4189,493.75,848.1689" style="stroke:#181818;stroke-width:1.5625;"/><line style="stroke:#181818;stroke-width:1.5625;" x1="490.625" x2="835.9375" y1="848.1689" y2="848.1689"/><text fill="#000000" font-family="sans-serif" font-size="20.3125" lengthAdjust="spacing" textLength="182.8125" x="510.9375" y="839.0182">mostrarNombreCM()</text><line style="stroke:#181818;stroke-width:1.5625;" x1="837.5" x2="903.125" y1="898.7183" y2="898.7183"/><line style="stroke:#181818;stroke-width:1.5625;" x1="903.125" x2="903.125" y1="898.7183" y2="919.0308"/><line style="stroke:#181818;stroke-width:1.5625;" x1="839.0625" x2="903.125" y1="919.0308" y2="919.0308"/><polygon fill="#181818" points="854.6875,912.7808,839.0625,919.0308,854.6875,925.2808,848.4375,919.0308" style="stroke:#181818;stroke-width:1.5625;"/><text fill="#000000" font-family="sans-serif" font-size="20.3125" lengthAdjust="spacing" textLength="289.0625" x="850" y="889.5676">buscarBolsinesEnviadosEnCM()</text><path d="M749.2188,942.4683 L866.4063,942.4683 L866.4063,958.6426 L850.7813,974.2676 L749.2188,974.2676 L749.2188,942.4683 " fill="#EEEEEE" style="stroke:#000000;stroke-width:2.34375;"/><rect fill="none" height="411.6943" style="stroke:#000000;stroke-width:2.34375;" width="1810.1563" x="749.2188" y="942.4683"/><text fill="#000000" font-family="sans-serif" font-size="20.3125" font-weight="bold" lengthAdjust="spacing" textLength="43.75" x="774.2188" y="966.6794">loop</text><text fill="#000000" font-family="sans-serif" font-size="17.1875" font-weight="bold" lengthAdjust="spacing" textLength="226.5625" x="891.4063" y="964.9979">[mientras exista bolsines]</text><polygon fill="#181818" points="1812.5,1007.373,1828.125,1013.623,1812.5,1019.873,1818.75,1013.623" style="stroke:#181818;stroke-width:1.5625;"/><line style="stroke:#181818;stroke-width:1.5625;" x1="837.5" x2="1821.875" y1="1013.623" y2="1013.623"/><text fill="#000000" font-family="sans-serif" font-size="20.3125" lengthAdjust="spacing" textLength="289.0625" x="850" y="1004.4724">esCMOrigenIgualCMEmpleado()</text><polygon fill="#181818" points="1812.5,1057.9224,1828.125,1064.1724,1812.5,1070.4224,1818.75,1064.1724" style="stroke:#181818;stroke-width:1.5625;"/><line style="stroke:#181818;stroke-width:1.5625;" x1="837.5" x2="1821.875" y1="1064.1724" y2="1064.1724"/><text fill="#000000" font-family="sans-serif" font-size="20.3125" lengthAdjust="spacing" textLength="115.625" x="850" y="1055.0217">sosEnviado()</text><line style="stroke:#181818;stroke-width:1.5625;" x1="1831.25" x2="1896.875" y1="1114.7217" y2="1114.7217"/><line style="stroke:#181818;stroke-width:1.5625;" x1="1896.875" x2="1896.875" y1="1114.7217" y2="1135.0342"/><line style="stroke:#181818;stroke-width:1.5625;" x1="1832.8125" x2="1896.875" y1="1135.0342" y2="1135.0342"/><polygon fill="#181818" points="1848.4375,1128.7842,1832.8125,1135.0342,1848.4375,1141.2842,1842.1875,1135.0342" style="stroke:#181818;stroke-width:1.5625;"/><text fill="#000000" font-family="sans-serif" font-size="20.3125" lengthAdjust="spacing" textLength="264.0625" x="1843.75" y="1105.571">buscarCambioEstadoActual()</text><path d="M1779.6875,1158.4717 L1896.875,1158.4717 L1896.875,1174.646 L1881.25,1190.271 L1779.6875,1190.271 L1779.6875,1158.4717 " fill="#EEEEEE" style="stroke:#000000;stroke-width:2.34375;"/><rect fill="none" height="83.6548" style="stroke:#000000;stroke-width:2.34375;" width="467.1875" x="1779.6875" y="1158.4717"/><text fill="#000000" font-family="sans-serif" font-size="20.3125" font-weight="bold" lengthAdjust="spacing" textLength="43.75" x="1804.6875" y="1182.6828">loop</text><text fill="#000000" font-family="sans-serif" font-size="17.1875" font-weight="bold" lengthAdjust="spacing" textLength="315.625" x="1921.875" y="1181.0013">[mientras exista cambios de estado]</text><polygon fill="#181818" points="2101.5625,1223.3765,2117.1875,1229.6265,2101.5625,1235.8765,2107.8125,1229.6265" style="stroke:#181818;stroke-width:1.5625;"/><line style="stroke:#181818;stroke-width:1.5625;" x1="1831.25" x2="2110.9375" y1="1229.6265" y2="1229.6265"/><text fill="#000000" font-family="sans-serif" font-size="20.3125" lengthAdjust="spacing" textLength="103.125" x="1843.75" y="1220.4758">sosActual()</text><polygon fill="#181818" points="2313.2813,1284.8633,2328.9063,1291.1133,2313.2813,1297.3633,2319.5313,1291.1133" style="stroke:#181818;stroke-width:1.5625;"/><line style="stroke:#181818;stroke-width:1.5625;" x1="1831.25" x2="2322.6563" y1="1291.1133" y2="1291.1133"/><text fill="#000000" font-family="sans-serif" font-size="20.3125" lengthAdjust="spacing" textLength="115.625" x="1843.75" y="1281.9626">sosEnviado()</text><polygon fill="#181818" points="2484.375,1335.4126,2500,1341.6626,2484.375,1347.9126,2490.625,1341.6626" style="stroke:#181818;stroke-width:1.5625;"/><line style="stroke:#181818;stroke-width:1.5625;" x1="2332.0313" x2="2493.75" y1="1341.6626" y2="1341.6626"/><text fill="#000000" font-family="sans-serif" font-size="20.3125" lengthAdjust="spacing" textLength="104.6875" x="2344.5313" y="1332.5119">esEnviado()</text><line style="stroke:#181818;stroke-width:1.5625;" x1="837.5" x2="903.125" y1="1403.1494" y2="1403.1494"/><line style="stroke:#181818;stroke-width:1.5625;" x1="903.125" x2="903.125" y1="1403.1494" y2="1423.4619"/><line style="stroke:#181818;stroke-width:1.5625;" x1="839.0625" x2="903.125" y1="1423.4619" y2="1423.4619"/><polygon fill="#181818" points="854.6875,1417.2119,839.0625,1423.4619,854.6875,1429.7119,848.4375,1423.4619" style="stroke:#181818;stroke-width:1.5625;"/><text fill="#000000" font-family="sans-serif" font-size="20.3125" lengthAdjust="spacing" textLength="198.4375" x="850" y="1393.9987">buscaDatosBolsines()</text><path d="M749.2188,1446.8994 L866.4063,1446.8994 L866.4063,1463.0737 L850.7813,1478.6987 L749.2188,1478.6987 L749.2188,1446.8994 " fill="#EEEEEE" style="stroke:#000000;stroke-width:2.34375;"/><rect fill="none" height="134.2041" style="stroke:#000000;stroke-width:2.34375;" width="1133.5938" x="749.2188" y="1446.8994"/><text fill="#000000" font-family="sans-serif" font-size="20.3125" font-weight="bold" lengthAdjust="spacing" textLength="43.75" x="774.2188" y="1471.1105">loop</text><text fill="#000000" font-family="sans-serif" font-size="17.1875" font-weight="bold" lengthAdjust="spacing" textLength="226.5625" x="891.4063" y="1469.429">[mientras exista bolsines]</text><polygon fill="#181818" points="1812.5,1511.8042,1828.125,1518.0542,1812.5,1524.3042,1818.75,1518.0542" style="stroke:#181818;stroke-width:1.5625;"/><line style="stroke:#181818;stroke-width:1.5625;" x1="837.5" x2="1821.875" y1="1518.0542" y2="1518.0542"/><text fill="#000000" font-family="sans-serif" font-size="20.3125" lengthAdjust="spacing" textLength="167.1875" x="850" y="1508.9035">getNumeroBolsin()</text><polygon fill="#181818" points="1812.5,1562.3535,1828.125,1568.6035,1812.5,1574.8535,1818.75,1568.6035" style="stroke:#181818;stroke-width:1.5625;"/><line style="stroke:#181818;stroke-width:1.5625;" x1="837.5" x2="1821.875" y1="1568.6035" y2="1568.6035"/><text fill="#000000" font-family="sans-serif" font-size="20.3125" lengthAdjust="spacing" textLength="140.625" x="850" y="1559.4528">getCMDestino()</text><line style="stroke:#181818;stroke-width:1.5625;" x1="837.5" x2="903.125" y1="1630.0903" y2="1630.0903"/><line style="stroke:#181818;stroke-width:1.5625;" x1="903.125" x2="903.125" y1="1630.0903" y2="1650.4028"/><line style="stroke:#181818;stroke-width:1.5625;" x1="839.0625" x2="903.125" y1="1650.4028" y2="1650.4028"/><polygon fill="#181818" points="854.6875,1644.1528,839.0625,1650.4028,854.6875,1656.6528,848.4375,1650.4028" style="stroke:#181818;stroke-width:1.5625;"/><text fill="#000000" font-family="sans-serif" font-size="20.3125" lengthAdjust="spacing" textLength="185.9375" x="850" y="1620.9396">buscarLocalizacion()</text><polygon fill="#181818" points="2543.75,1694.7021,2559.375,1700.9521,2543.75,1707.2021,2550,1700.9521" style="stroke:#181818;stroke-width:1.5625;"/><line style="stroke:#181818;stroke-width:1.5625;stroke-dasharray:2.0,2.0;" x1="837.5" x2="2553.125" y1="1700.9521" y2="1700.9521"/><text fill="#000000" font-family="sans-serif" font-size="20.3125" lengthAdjust="spacing" textLength="195.3125" x="850" y="1691.8015">solicitarLocalizacion()</text><text fill="#000000" font-family="sans-serif" font-size="21.875" lengthAdjust="spacing" textLength="123.4375" x="2560.9375" y="1737.1735">Interfaz GPS</text><path d="M2595.3125,1669.1528 L2595.3125,1706.6528 M2595.3125,1687.9028 L2621.875,1687.9028 " fill="none" style="stroke:#181818;stroke-width:0.78125;"/><ellipse cx="2640.625" cy="1687.9028" fill="#E2E2F0" rx="18.75" ry="18.75" style="stroke:#181818;stroke-width:0.78125;"/><path d="M2543.75,1770.105 L2660.9375,1770.105 L2660.9375,1786.2793 L2645.3125,1801.9043 L2543.75,1801.9043 L2543.75,1770.105 " fill="#EEEEEE" style="stroke:#000000;stroke-width:2.34375;"/><rect fill="none" height="83.6548" style="stroke:#000000;stroke-width:2.34375;" width="389.0625" x="2543.75" y="1770.105"/><text fill="#000000" font-family="sans-serif" font-size="20.3125" font-weight="bold" lengthAdjust="spacing" textLength="43.75" x="2568.75" y="1794.3161">loop</text><text fill="#000000" font-family="sans-serif" font-size="17.1875" font-weight="bold" lengthAdjust="spacing" textLength="237.5" x="2685.9375" y="1792.6346">[mientras existan bolsines]</text><polygon fill="#181818" points="2822.6563,1835.0098,2838.2813,1841.2598,2822.6563,1847.5098,2828.9063,1841.2598" style="stroke:#181818;stroke-width:1.5625;"/><line style="stroke:#181818;stroke-width:1.5625;" x1="2627.3438" x2="2832.0313" y1="1841.2598" y2="1841.2598"/><text fill="#000000" font-family="sans-serif" font-size="20.3125" lengthAdjust="spacing" textLength="173.4375" x="2639.8438" y="1832.1091">getBolsinLocation()</text><line style="stroke:#181818;stroke-width:1.5625;" x1="837.5" x2="903.125" y1="1902.7466" y2="1902.7466"/><line style="stroke:#181818;stroke-width:1.5625;" x1="903.125" x2="903.125" y1="1902.7466" y2="1923.0591"/><line style="stroke:#181818;stroke-width:1.5625;" x1="839.0625" x2="903.125" y1="1923.0591" y2="1923.0591"/><polygon fill="#181818" points="854.6875,1916.8091,839.0625,1923.0591,854.6875,1929.3091,848.4375,1923.0591" style="stroke:#181818;stroke-width:1.5625;"/><text fill="#000000" font-family="sans-serif" font-size="20.3125" lengthAdjust="spacing" textLength="123.4375" x="850" y="1893.5959">buscarMapa()</text><polygon fill="#181818" points="2911.7188,1967.3584,2927.3438,1973.6084,2911.7188,1979.8584,2917.9688,1973.6084" style="stroke:#181818;stroke-width:1.5625;"/><line style="stroke:#181818;stroke-width:1.5625;stroke-dasharray:2.0,2.0;" x1="837.5" x2="2921.0938" y1="1973.6084" y2="1973.6084"/><text fill="#000000" font-family="sans-serif" font-size="20.3125" lengthAdjust="spacing" textLength="132.8125" x="850" y="1964.4577">solicitarMapa()</text><text fill="#000000" font-family="sans-serif" font-size="21.875" lengthAdjust="spacing" textLength="132.8125" x="2928.9063" y="2009.8297">Interfaz Mapa</text><path d="M2967.9688,1941.8091 L2967.9688,1979.3091 M2967.9688,1960.5591 L2994.5313,1960.5591 " fill="none" style="stroke:#181818;stroke-width:0.78125;"/><ellipse cx="3013.2813" cy="1960.5591" fill="#E2E2F0" rx="18.75" ry="18.75" style="stroke:#181818;stroke-width:0.78125;"/><polygon fill="#181818" points="3185.9375,2063.623,3201.5625,2069.873,3185.9375,2076.123,3192.1875,2069.873" style="stroke:#181818;stroke-width:1.5625;"/><line style="stroke:#181818;stroke-width:1.5625;" x1="3000" x2="3195.3125" y1="2069.873" y2="2069.873"/><text fill="#000000" font-family="sans-serif" font-size="20.3125" lengthAdjust="spacing" textLength="132.8125" x="3012.5" y="2060.7224">solicitarMapa()</text><polygon fill="#181818" points="500,2114.1724,484.375,2120.4224,500,2126.6724,493.75,2120.4224" style="stroke:#181818;stroke-width:1.5625;"/><line style="stroke:#181818;stroke-width:1.5625;" x1="490.625" x2="835.9375" y1="2120.4224" y2="2120.4224"/><text fill="#000000" font-family="sans-serif" font-size="20.3125" lengthAdjust="spacing" textLength="287.5" x="510.9375" y="2111.2717">mostrarMapaPosicionBolsines()</text><line style="stroke:#181818;stroke-width:1.5625;" x1="482.8125" x2="548.4375" y1="2170.9717" y2="2170.9717"/><line style="stroke:#181818;stroke-width:1.5625;" x1="548.4375" x2="548.4375" y1="2170.9717" y2="2191.2842"/><line style="stroke:#181818;stroke-width:1.5625;" x1="484.375" x2="548.4375" y1="2191.2842" y2="2191.2842"/><polygon fill="#181818" points="500,2185.0342,484.375,2191.2842,500,2197.5342,493.75,2191.2842" style="stroke:#181818;stroke-width:1.5625;"/><text fill="#000000" font-family="sans-serif" font-size="20.3125" lengthAdjust="spacing" textLength="242.1875" x="495.3125" y="2161.821">habilitarFormasBusqueda()</text><polygon fill="#181818" points="464.0625,2235.5835,479.6875,2241.8335,464.0625,2248.0835,470.3125,2241.8335" style="stroke:#181818;stroke-width:1.5625;"/><line style="stroke:#181818;stroke-width:1.5625;" x1="116.4063" x2="473.4375" y1="2241.8335" y2="2241.8335"/><text fill="#000000" font-family="sans-serif" font-size="20.3125" lengthAdjust="spacing" textLength="259.375" x="128.9063" y="2232.6828">tomarSeleccionBolsinMapa()</text><polygon fill="#181818" points="818.75,2286.1328,834.375,2292.3828,818.75,2298.6328,825,2292.3828" style="stroke:#181818;stroke-width:1.5625;"/><line style="stroke:#181818;stroke-width:1.5625;" x1="482.8125" x2="828.125" y1="2292.3828" y2="2292.3828"/><text fill="#000000" font-family="sans-serif" font-size="20.3125" lengthAdjust="spacing" textLength="259.375" x="495.3125" y="2283.2321">tomarSeleccionBolsinMapa()</text><polygon fill="#181818" points="500,2336.6821,484.375,2342.9321,500,2349.1821,493.75,2342.9321" style="stroke:#181818;stroke-width:1.5625;"/><line style="stroke:#181818;stroke-width:1.5625;" x1="490.625" x2="835.9375" y1="2342.9321" y2="2342.9321"/><text fill="#000000" font-family="sans-serif" font-size="20.3125" lengthAdjust="spacing" textLength="314.0625" x="510.9375" y="2333.7814">solicitarConfirmacionEnviarCorreo()</text><polygon fill="#181818" points="464.0625,2387.2314,479.6875,2393.4814,464.0625,2399.7314,470.3125,2393.4814" style="stroke:#181818;stroke-width:1.5625;"/><line style="stroke:#181818;stroke-width:1.5625;" x1="116.4063" x2="473.4375" y1="2393.4814" y2="2393.4814"/><text fill="#000000" font-family="sans-serif" font-size="20.3125" lengthAdjust="spacing" textLength="295.3125" x="128.9063" y="2384.3307">tomarConfirmacionEnviarCorreo()</text><polygon fill="#181818" points="818.75,2437.7808,834.375,2444.0308,818.75,2450.2808,825,2444.0308" style="stroke:#181818;stroke-width:1.5625;"/><line style="stroke:#181818;stroke-width:1.5625;" x1="482.8125" x2="828.125" y1="2444.0308" y2="2444.0308"/><text fill="#000000" font-family="sans-serif" font-size="20.3125" lengthAdjust="spacing" textLength="295.3125" x="495.3125" y="2434.8801">tomarConfirmacionEnviarCorreo()</text><line style="stroke:#181818;stroke-width:1.5625;" x1="837.5" x2="903.125" y1="2494.5801" y2="2494.5801"/><line style="stroke:#181818;stroke-width:1.5625;" x1="903.125" x2="903.125" y1="2494.5801" y2="2514.8926"/><line style="stroke:#181818;stroke-width:1.5625;" x1="839.0625" x2="903.125" y1="2514.8926" y2="2514.8926"/><polygon fill="#181818" points="854.6875,2508.6426,839.0625,2514.8926,854.6875,2521.1426,848.4375,2514.8926" style="stroke:#181818;stroke-width:1.5625;"/><text fill="#000000" font-family="sans-serif" font-size="20.3125" lengthAdjust="spacing" textLength="120.3125" x="850" y="2485.4294">buscarGCM()</text><path d="M749.2188,2538.3301 L866.4063,2538.3301 L866.4063,2554.5044 L850.7813,2570.1294 L749.2188,2570.1294 L749.2188,2538.3301 " fill="#EEEEEE" style="stroke:#000000;stroke-width:2.34375;"/><rect fill="none" height="184.7534" style="stroke:#000000;stroke-width:2.34375;" width="2654.6875" x="749.2188" y="2538.3301"/><text fill="#000000" font-family="sans-serif" font-size="20.3125" font-weight="bold" lengthAdjust="spacing" textLength="43.75" x="774.2188" y="2562.5412">loop</text><text fill="#000000" font-family="sans-serif" font-size="17.1875" font-weight="bold" lengthAdjust="spacing" textLength="259.375" x="891.4063" y="2560.8597">[mientras existan empleados]</text><polygon fill="#181818" points="1280.4688,2603.2349,1296.0938,2609.4849,1280.4688,2615.7349,1286.7188,2609.4849" style="stroke:#181818;stroke-width:1.5625;"/><line style="stroke:#181818;stroke-width:1.5625;" x1="837.5" x2="1289.8438" y1="2609.4849" y2="2609.4849"/><text fill="#000000" font-family="sans-serif" font-size="20.3125" lengthAdjust="spacing" textLength="87.5" x="850" y="2600.3342">esTuCM()</text><polygon fill="#181818" points="1280.4688,2653.7842,1296.0938,2660.0342,1280.4688,2666.2842,1286.7188,2660.0342" style="stroke:#181818;stroke-width:1.5625;"/><line style="stroke:#181818;stroke-width:1.5625;" x1="837.5" x2="1289.8438" y1="2660.0342" y2="2660.0342"/><text fill="#000000" font-family="sans-serif" font-size="20.3125" lengthAdjust="spacing" textLength="92.1875" x="850" y="2650.8835">sosGCM()</text><polygon fill="#181818" points="3343.75,2704.3335,3359.375,2710.5835,3343.75,2716.8335,3350,2710.5835" style="stroke:#181818;stroke-width:1.5625;"/><line style="stroke:#181818;stroke-width:1.5625;" x1="1299.2188" x2="3353.125" y1="2710.5835" y2="2710.5835"/><text fill="#000000" font-family="sans-serif" font-size="20.3125" lengthAdjust="spacing" textLength="81.25" x="1311.7188" y="2701.4328">esGCM()</text><line style="stroke:#181818;stroke-width:1.5625;" x1="837.5" x2="903.125" y1="2772.0703" y2="2772.0703"/><line style="stroke:#181818;stroke-width:1.5625;" x1="903.125" x2="903.125" y1="2772.0703" y2="2792.3828"/><line style="stroke:#181818;stroke-width:1.5625;" x1="839.0625" x2="903.125" y1="2792.3828" y2="2792.3828"/><polygon fill="#181818" points="854.6875,2786.1328,839.0625,2792.3828,854.6875,2798.6328,848.4375,2792.3828" style="stroke:#181818;stroke-width:1.5625;"/><text fill="#000000" font-family="sans-serif" font-size="20.3125" lengthAdjust="spacing" textLength="171.875" x="850" y="2762.9196">buscarEmailGCM()</text><polygon fill="#181818" points="3484.375,2836.6821,3500,2842.9321,3484.375,2849.1821,3490.625,2842.9321" style="stroke:#181818;stroke-width:1.5625;"/><line style="stroke:#181818;stroke-width:1.5625;" x1="837.5" x2="3493.75" y1="2842.9321" y2="2842.9321"/><text fill="#000000" font-family="sans-serif" font-size="20.3125" lengthAdjust="spacing" textLength="92.1875" x="850" y="2833.7814">getEmail()</text><polygon fill="#181818" points="3740.625,2887.2314,3756.25,2893.4814,3740.625,2899.7314,3746.875,2893.4814" style="stroke:#181818;stroke-width:1.5625;"/><line style="stroke:#181818;stroke-width:1.5625;stroke-dasharray:2.0,2.0;" x1="837.5" x2="3750" y1="2893.4814" y2="2893.4814"/><text fill="#000000" font-family="sans-serif" font-size="20.3125" lengthAdjust="spacing" textLength="76.5625" x="850" y="2884.3307">include()</text><polygon fill="#181818" points="500,2937.7808,484.375,2944.0308,500,2950.2808,493.75,2944.0308" style="stroke:#181818;stroke-width:1.5625;"/><line style="stroke:#181818;stroke-width:1.5625;" x1="490.625" x2="835.9375" y1="2944.0308" y2="2944.0308"/><text fill="#000000" font-family="sans-serif" font-size="20.3125" lengthAdjust="spacing" textLength="239.0625" x="510.9375" y="2934.8801">mostrarEjecucionExitosa()</text><line style="stroke:#181818;stroke-width:1.5625;" x1="837.5" x2="903.125" y1="2994.5801" y2="2994.5801"/><line style="stroke:#181818;stroke-width:1.5625;" x1="903.125" x2="903.125" y1="2994.5801" y2="3014.8926"/><line style="stroke:#181818;stroke-width:1.5625;" x1="839.0625" x2="903.125" y1="3014.8926" y2="3014.8926"/><polygon fill="#181818" points="854.6875,3008.6426,839.0625,3014.8926,854.6875,3021.1426,848.4375,3014.8926" style="stroke:#181818;stroke-width:1.5625;"/><text fill="#000000" font-family="sans-serif" font-size="20.3125" lengthAdjust="spacing" textLength="60.9375" x="850" y="2985.4294">finCU()</text><!--SRC=[VLRDRkCs4BxhAOXSTlUmYoHjK3I70fPMQmImKYEE7u2MnWut5AcIrDRDqtU6f6JQbYqWi3BppV2R7yx8lWlLSSDRrl4ThCG7iD_lRzkMtV_vHzjczaZzjn6W77T2AoQvQcpDEqWmJIVOtSDj8a6417RxxU7Xn5N5pKuezf0byYKtJjIYuyejUTC8jMFtYJhN-odn8BjBNHcktYrqx2ubetG393mwjENx2gmTWpzY3__qe6g8W9aKEmmSjYx5lF56_qi4jbnQoB8tqG3RQkqsUfzbl7RQi9jIrHWm8XagSosjK3UCMrRcsKRtgk7cFtQpnC2vb3m5B5TvLclbZ9RiPWwMl2NgUPvbjG7km2FBd7tz-XUZT_R8T5TZfGgjR2yTD-kDg3b9Fd_9Ca8WCW3V-4P8WP210I6YMpp1On4y9smzwUuJmmY99ZSC98Esaq3HIhthyJV3jX4EGvpLhkVoSGKM3Nq4izMeV2oZMKXDjHmr2tH3YcF4eXm1XMu5kQoWGLPUMrHPDlT1UjwR7dlH3FQ3G-GUCBCLOdRWrhRdHf1SQjsnYXhUe3VO2-ku6YEp6SCds29JD0RxsX-iGJMKbPnERRN5wuA4iFWdkQ6NSvP5TP7deWmyYmf5-0-AqAyNFUjsOs14XjBYsLIKeFD6HwpmBtGJO8Zgb_2H3KbD-Ym_P9gt6w5PYTc8PIZAq_AUOsO9A16NgzU98WsCoaYeL86uhqXxN16sYM1VZrYGt9UZg71UxK0zOGlAGqhHqmdKwk6eGJUgOZryF85t297eiFXCqggzYQNh3jvkX0VdHHaE7jqDMjyu1zni09um93crtkhLnthGUllJb7xdJjiXhKDlNyeaouxJGwtLjs1qS10P7EcBwZj6ALJI-VFbAXbjJyg1sV8F4llAFv4-3aTyPQ-6r-zWGhEGxhmj5XgNYVWOPawSJzxHF0meUlVPahX6t9d5fMAfaoR2ntkYz0UF6688dZowWxSXLgrtkEOgtjbpsYYbUJgH2zA4P5H3AbPWVea6tnANCIVLE98HFWHSfU76ar3ecK_f9aO3QPRQ2afIqY8OrWear2IcBdQYyyiBWyAbsF0B6-I7DYstUGIXdqyiFNFaC_e-WfO9rEds4YmUFRyAGznn23AMUQJqT86HHyM4NM6KmgumIc61KpYnRnXzGOInYrkpvK9caxd23RuLc5PovoywIem1FKNl2lQCunNik2KCuv8HDP_0EIxLSLk_QEbRysKKpS7WAoHRsd-ZbEUNOkud-kKBUNtDZiQf0cVamIk9KFFY3GxYoU687mKONm15NLooNX7Ajf0SCuPZtVfRqEFFRtVVdhKJMq5PweUl8Nz7Gf-LCIqZQlna2atnMAnz0f_N-N2XyHMF5ggMVKEhVEh2bZ-XxdtDzWB7-k5Q-v2sGXNhpr_-1m00]--></g></svg>