<?xml version="1.0" encoding="us-ascii" standalone="no"?><svg xmlns="http://www.w3.org/2000/svg" xmlns:xlink="http://www.w3.org/1999/xlink" contentStyleType="text/css" height="714px" preserveAspectRatio="none" style="width:660px;height:714px;background:#FFFFFF;" version="1.1" viewBox="0 0 660 714" width="660px" zoomAndPan="magnify"><defs><filter height="300%" id="fkgeerugv20tu" width="300%" x="-1" y="-1"><feGaussianBlur result="blurOut" stdDeviation="2.0"/><feColorMatrix in="blurOut" result="blurOut2" type="matrix" values="0 0 0 0 0 0 0 0 0 0 0 0 0 0 0 0 0 0 .4 0"/><feOffset dx="4.0" dy="4.0" in="blurOut2" result="blurOut3"/><feBlend in="SourceGraphic" in2="blurOut3" mode="normal"/></filter></defs><g><text fill="#000000" font-family="sans-serif" font-size="14" font-weight="bold" lengthAdjust="spacing" textLength="204" x="221.25" y="24.5332">M&#225;quina de estados - Remito</text><rect fill="#EEF5FF" filter="url(#fkgeerugv20tu)" height="40" rx="10" ry="10" style="stroke:#5B7DB1;stroke-width:0.5;" width="57" x="383" y="153.6094"/><text fill="#102A43" font-family="Arial" font-size="14" lengthAdjust="spacing" textLength="47" x="388" y="178.6919">Creado</text><rect fill="#EEF5FF" filter="url(#fkgeerugv20tu)" height="40" rx="10" ry="10" style="stroke:#5B7DB1;stroke-width:0.5;" width="124" x="219.5" y="296.6094"/><text fill="#102A43" font-family="Arial" font-size="14" lengthAdjust="spacing" textLength="114" x="224.5" y="321.6919">En Bols&#237;n Saliente</text><rect fill="#EEF5FF" filter="url(#fkgeerugv20tu)" height="40" rx="10" ry="10" style="stroke:#5B7DB1;stroke-width:0.5;" width="124" x="219.5" y="436.6094"/><text fill="#102A43" font-family="Arial" font-size="14" lengthAdjust="spacing" textLength="114" x="224.5" y="461.6919">En Bols&#237;n Enviado</text><rect fill="#EEF5FF" filter="url(#fkgeerugv20tu)" height="40" rx="10" ry="10" style="stroke:#5B7DB1;stroke-width:0.5;" width="129" x="7" y="579.6094"/><text fill="#102A43" font-family="Arial" font-size="14" lengthAdjust="spacing" textLength="119" x="12" y="604.6919">Recibido Aceptado</text><rect fill="#EEF5FF" filter="url(#fkgeerugv20tu)" height="40" rx="10" ry="10" style="stroke:#5B7DB1;stroke-width:0.5;" width="176" x="213.5" y="579.6094"/><text fill="#102A43" font-family="Arial" font-size="14" lengthAdjust="spacing" textLength="166" x="218.5" y="604.6919">Recibido Aceptado Parcial</text><rect fill="#EEF5FF" filter="url(#fkgeerugv20tu)" height="40" rx="10" ry="10" style="stroke:#5B7DB1;stroke-width:0.5;" width="78" x="521.5" y="366.6094"/><text fill="#102A43" font-family="Arial" font-size="14" lengthAdjust="spacing" textLength="68" x="526.5" y="391.6919">Cancelado</text><ellipse cx="411.5" cy="54.6094" fill="#222222" filter="url(#fkgeerugv20tu)" rx="10" ry="10" style="stroke:#222222;stroke-width:1.0;"/><ellipse cx="301.5" cy="691.6094" fill="none" filter="url(#fkgeerugv20tu)" rx="11" ry="11" style="stroke:#222222;stroke-width:1.0;"/><ellipse cx="301.5" cy="691.6094" fill="#222222" rx="6" ry="6" style="stroke:#222222;stroke-width:1.0;"/><!--link *start* to Creado--><g id="link_*start*_Creado"><path d="M411.5,64.7894 C411.5,83.8594 411.5,122.0994 411.5,147.5894 " fill="none" id="*start*-to-Creado" style="stroke:#5B7DB1;stroke-width:1.0;"/><polygon fill="#5B7DB1" points="411.5,153.5894,415.5,144.5894,411.5,148.5894,407.5,144.5894,411.5,153.5894" style="stroke:#5B7DB1;stroke-width:1.0;"/><text fill="#000000" font-family="Arial" font-size="12" lengthAdjust="spacing" textLength="103" x="412.5" y="106.8652">19. Generar Bols&#237;n</text><text fill="#000000" font-family="Arial" font-size="12" lengthAdjust="spacing" textLength="31" x="448.5" y="120.6641">new()</text></g><!--link Creado to EnBolsinSaliente--><g id="link_Creado_EnBolsinSaliente"><path d="M382.83,174.4994 C347.23,176.0894 287.74,184.8394 259.5,223.6094 C243.74,245.2494 253.9355,271.4533 265.6255,291.3933 " fill="none" id="Creado-to-EnBolsinSaliente" style="stroke:#5B7DB1;stroke-width:1.0;"/><polygon fill="#5B7DB1" points="268.66,296.5694,267.5589,286.7823,266.1312,292.256,260.6575,290.8283,268.66,296.5694" style="stroke:#5B7DB1;stroke-width:1.0;"/><text fill="#000000" font-family="Arial" font-size="12" lengthAdjust="spacing" textLength="103" x="262.5" y="235.8652">19. Generar Bols&#237;n</text><text fill="#000000" font-family="Arial" font-size="12" lengthAdjust="spacing" textLength="107" x="260.5" y="249.6641">20. Modificar Bols&#237;n</text><text fill="#000000" font-family="Arial" font-size="12" lengthAdjust="spacing" textLength="91" x="268.5" y="263.4629">agregarRemito()</text></g><!--link EnBolsinSaliente to Creado--><g id="link_EnBolsinSaliente_Creado"><path d="M331.06,296.5594 C345.85,288.9994 361.14,279.0794 372.5,266.6094 C391.54,245.7094 400.6555,219.9303 405.8455,199.7503 " fill="none" id="EnBolsinSaliente-to-Creado" style="stroke:#5B7DB1;stroke-width:1.0;"/><polygon fill="#5B7DB1" points="407.34,193.9394,401.2244,201.6594,406.0946,198.7818,408.9722,203.652,407.34,193.9394" style="stroke:#5B7DB1;stroke-width:1.0;"/><text fill="#000000" font-family="Arial" font-size="12" lengthAdjust="spacing" textLength="107" x="398.5" y="235.8652">20. Modificar Bols&#237;n</text><text fill="#000000" font-family="Arial" font-size="12" lengthAdjust="spacing" textLength="104" x="400" y="249.6641">21. Eliminar Bols&#237;n</text><text fill="#000000" font-family="Arial" font-size="12" lengthAdjust="spacing" textLength="79" x="412.5" y="263.4629">quitarRemito()</text></g><!--link Creado to Creado--><g id="link_Creado_Creado"><path d="M440.23,162.4594 C458.05,159.7694 475,163.4894 475,173.6094 C475,183.7294 463.9828,188.345 446.1628,185.655 " fill="none" id="Creado-to-Creado" style="stroke:#5B7DB1;stroke-width:1.0;"/><polygon fill="#5B7DB1" points="440.23,184.7594,448.5321,190.0579,445.174,185.5057,449.7262,182.1476,440.23,184.7594" style="stroke:#5B7DB1;stroke-width:1.0;"/><text fill="#000000" font-family="Arial" font-size="12" lengthAdjust="spacing" textLength="112" x="481" y="171.3652">16. Modificar Remito</text><text fill="#000000" font-family="Arial" font-size="12" lengthAdjust="spacing" textLength="99" x="487.5" y="185.1641">modificarRemito()</text></g><!--link EnBolsinSaliente to EnBolsinEnviado--><g id="link_EnBolsinSaliente_EnBolsinEnviado"><path d="M281.5,336.7994 C281.5,363.1594 281.5,404.3094 281.5,430.5794 " fill="none" id="EnBolsinSaliente-to-EnBolsinEnviado" style="stroke:#5B7DB1;stroke-width:1.0;"/><polygon fill="#5B7DB1" points="281.5,436.5794,285.5,427.5794,281.5,431.5794,277.5,427.5794,281.5,436.5794" style="stroke:#5B7DB1;stroke-width:1.0;"/><text fill="#000000" font-family="Arial" font-size="12" lengthAdjust="spacing" textLength="184" x="282.5" y="384.3652">27. Registrar el retiro de Bolsines</text><text fill="#000000" font-family="Arial" font-size="12" lengthAdjust="spacing" textLength="41" x="354" y="398.1641">enviar()</text></g><!--link EnBolsinEnviado to RecibidoAceptado--><g id="link_EnBolsinEnviado_RecibidoAceptado"><path d="M219.43,462.0094 C157.84,467.8194 69.66,480.5294 48.5,506.6094 C31.59,527.4494 42.4096,553.9307 54.7696,574.1407 " fill="none" id="EnBolsinEnviado-to-RecibidoAceptado" style="stroke:#5B7DB1;stroke-width:1.0;"/><polygon fill="#5B7DB1" points="57.9,579.2594,56.6168,569.4945,55.2913,574.9939,49.7919,573.6684,57.9,579.2594" style="stroke:#5B7DB1;stroke-width:1.0;"/><text fill="#000000" font-family="Arial" font-size="12" lengthAdjust="spacing" textLength="182" x="74" y="518.8652">28. Registrar recepci&#243;n de bols&#237;n</text><text fill="#000000" font-family="Arial" font-size="12" lengthAdjust="spacing" textLength="231" x="49.5" y="532.6641">[y contenido bols&#237;n = contenido registrado]</text><text fill="#000000" font-family="Arial" font-size="12" lengthAdjust="spacing" textLength="90" x="120" y="546.4629">recibirYAceptar()</text></g><!--link EnBolsinEnviado to RecibidoAceptadoParcial--><g id="link_EnBolsinEnviado_RecibidoAceptadoParcial"><path d="M284.2,476.6294 C288.01,503.5394 294.1073,546.5088 297.9373,573.5088 " fill="none" id="EnBolsinEnviado-to-RecibidoAceptadoParcial" style="stroke:#5B7DB1;stroke-width:1.0;"/><polygon fill="#5B7DB1" points="298.78,579.4494,301.4763,569.9768,298.0778,574.4989,293.5556,571.1004,298.78,579.4494" style="stroke:#5B7DB1;stroke-width:1.0;"/><text fill="#000000" font-family="Arial" font-size="12" lengthAdjust="spacing" textLength="182" x="321.5" y="518.8652">28. Registrar recepci&#243;n de bols&#237;n</text><text fill="#000000" font-family="Arial" font-size="12" lengthAdjust="spacing" textLength="234" x="295.5" y="532.6641">[y contenido bols&#237;n != contenido registrado]</text><text fill="#000000" font-family="Arial" font-size="12" lengthAdjust="spacing" textLength="163" x="331" y="546.4629">recibirYAceptarParcialmente()</text></g><!--link Creado to Cancelado--><g id="link_Creado_Cancelado"><path d="M440.46,181.3194 C463.69,188.1694 495.45,201.0794 514.5,223.6094 C550.08,265.6994 557.8704,327.6484 559.6804,360.5484 " fill="none" id="Creado-to-Cancelado" style="stroke:#5B7DB1;stroke-width:1.0;"/><polygon fill="#5B7DB1" points="560.01,366.5394,563.5096,357.3332,559.7353,361.5469,555.5217,357.7727,560.01,366.5394" style="stroke:#5B7DB1;stroke-width:1.0;"/><text fill="#000000" font-family="Arial" font-size="12" lengthAdjust="spacing" textLength="113" x="539.5" y="242.8652">17. Cancelar Remito</text><text fill="#000000" font-family="Arial" font-size="12" lengthAdjust="spacing" textLength="95" x="548.5" y="256.6641">cancelarRemito()</text></g><!--link Cancelado to *end*--><g id="link_Cancelado_*end*"><path d="M562.93,406.6694 C566.02,438.9494 567.87,505.2294 538.5,549.6094 C481.04,636.4494 355.9287,675.9311 317.8587,686.3111 " fill="none" id="Cancelado-to-*end*" style="stroke:#5B7DB1;stroke-width:1.0;"/><polygon fill="#5B7DB1" points="312.07,687.8894,321.8052,689.381,316.8939,686.5741,319.7008,681.6628,312.07,687.8894" style="stroke:#5B7DB1;stroke-width:1.0;"/></g><!--link RecibidoAceptado to *end*--><g id="link_RecibidoAceptado_*end*"><path d="M120.28,619.6994 C175.66,641.3694 256.5427,673.0125 285.8227,684.4725 " fill="none" id="RecibidoAceptado-to-*end*" style="stroke:#5B7DB1;stroke-width:1.0;"/><polygon fill="#5B7DB1" points="291.41,686.6594,284.487,679.6543,286.7539,684.837,281.5712,687.104,291.41,686.6594" style="stroke:#5B7DB1;stroke-width:1.0;"/></g><!--link RecibidoAceptadoParcial to *end*--><g id="link_RecibidoAceptadoParcial_*end*"><path d="M301.5,619.6994 C301.5,638.2694 301.5,659.7794 301.5,674.4794 " fill="none" id="RecibidoAceptadoParcial-to-*end*" style="stroke:#5B7DB1;stroke-width:1.0;"/><polygon fill="#5B7DB1" points="301.5,680.4794,305.5,671.4794,301.5,675.4794,297.5,671.4794,301.5,680.4794" style="stroke:#5B7DB1;stroke-width:1.0;"/></g><!--SRC=[fLF1RXCn4BtxAuPo0QH4oT9IG0AfL85J4MfFgEd1yKxIKNV7OTOXAgWVqm_Wn2Vanx2pTcAsYQX4JklttZpFZ5-Q6-Av5bt3H9kRcTW5bwUsiW9Ff-kVQZQAvbgNTaay0oSBp8XrbR72A50CyWgd7S9F1V2XwuuuFVBkdh5IeaJqQ79SJeOUFH6nooxuqRBxh6lqBEag0XVq0s5u64-nP3WezE5BTPVridRiEEnWMxiYezZkco5kQFSCT-gQIWIiv-uMIcoCqDoHPUN8LGXdg_jl2s8DGUFtLDe6Ud2EDJchLBkuWrD1Jno0Rg3zJCI8_PrLi_h5SA4hGdQuLequmCG9tA4VyNTAfaaUiQG-HqCJAYsS69ox94ve0lUguOiMuzUxiofocmar6wmsGwQJKfSlhg3NUn_dXhSmVDE7J-WZfYNDCcR6vRFdIaLHq7StiA-o6FJXp9Oq9PF3UYOuqzA-GyTwsyghlBRLZhbEoBRuGJD_sUnfeHZsOLHHxSEHeJuixf_MdVSCTnptVOCpQboO7YiGT2GsfAwLOZDc37B9NPD1CEs-O71zdRiAUiRGwZS7sqdg-F8MZFz38OTiH1JUPPX4Xz9UZLdMjyZNzfP7DnFZz5yzFNbiK_6oEkoxcusKt10Fl_DutgR3H21BrgOa6FYygmURtaUagHF_1m00]--></g></svg>