<?xml version="1.0" encoding="us-ascii" standalone="no"?><svg xmlns="http://www.w3.org/2000/svg" xmlns:xlink="http://www.w3.org/1999/xlink" contentStyleType="text/css" height="3190.625px" preserveAspectRatio="none" style="width:3778px;height:3190px;background:#FFFFFF;" version="1.1" viewBox="0 0 3778 3190" width="3778.125px" zoomAndPan="magnify"><defs/><g><!--class GestorBolsin--><g id="elem_GestorBolsin"><rect codeLine="32" fill="#E3F2FD" height="1401.9531" id="GestorBolsin" rx="12.5" ry="12.5" style="stroke:#1565C0;stroke-width:1.5625;" width="796.875" x="1482.8125" y="21.875"/><ellipse cx="1755.4688" cy="84.668" fill="#ADD1B2" rx="34.375" ry="34.375" style="stroke:#181818;stroke-width:3.125;"/><path d="M1764.1113,71.7773 Q1764.5996,71.0938 1765.1855,70.752 Q1765.7715,70.4102 1766.4551,70.4102 Q1767.627,70.4102 1768.3594,71.2402 Q1769.0918,72.0215 1769.0918,73.9258 L1769.0918,78.4668 Q1769.0918,80.3711 1768.3594,81.2012 Q1767.627,82.0313 1766.4551,82.0313 Q1765.3809,82.0313 1764.7461,81.3965 Q1764.1113,80.8105 1763.7695,79.1992 Q1763.623,78.0762 1763.0371,77.4902 Q1762.0117,76.3184 1760.1074,75.6348 Q1758.2031,74.9512 1756.25,74.9512 Q1753.8574,74.9512 1751.8555,75.9766 Q1749.9023,77.002 1748.3398,79.3457 Q1746.8262,81.6895 1746.8262,84.9121 L1746.8262,88.3301 Q1746.8262,92.1875 1749.6094,94.7754 Q1752.3926,97.3145 1757.373,97.3145 Q1760.3027,97.3145 1762.3535,96.5332 Q1763.5742,96.0449 1764.8926,94.6777 Q1765.7227,93.8477 1766.1621,93.6035 Q1766.6504,93.3594 1767.2852,93.3594 Q1768.3105,93.3594 1769.0918,94.1895 Q1769.9219,94.9707 1769.9219,96.0449 Q1769.9219,97.1191 1768.8477,98.3887 Q1767.2852,100.1953 1764.7949,101.2207 Q1761.4258,102.6367 1757.373,102.6367 Q1752.6367,102.6367 1748.877,100.6836 Q1745.8008,99.1211 1743.6523,95.8008 Q1741.5039,92.4316 1741.5039,88.4277 L1741.5039,84.8145 Q1741.5039,80.6641 1743.4082,77.0996 Q1745.3613,73.4863 1748.7793,71.582 Q1752.1973,69.6289 1756.0547,69.6289 Q1758.3496,69.6289 1760.3516,70.166 Q1762.4023,70.6543 1764.1113,71.7773 Z " fill="#000000"/><text fill="#000000" font-family="sans-serif" font-size="37.5" font-style="italic" lengthAdjust="spacing" textLength="159.375" x="1852.3438" y="76.4282">&#171;control&#187;</text><text fill="#000000" font-family="sans-serif" font-size="37.5" lengthAdjust="spacing" textLength="225" x="1819.5313" y="123.5962">GestorBolsin</text><line style="stroke:#1565C0;stroke-width:1.5625;" x1="1485.9375" x2="2276.5625" y1="147.4609" y2="147.4609"/><rect fill="none" height="18.75" style="stroke:#C82930;stroke-width:3.125;" width="18.75" x="1507.8125" y="178.8574"/><text fill="#000000" font-family="sans-serif" font-size="37.5" lengthAdjust="spacing" textLength="515.625" x="1545.3125" y="198.8892">pantallaBolsin: PantallaBolsin</text><rect fill="none" height="18.75" style="stroke:#C82930;stroke-width:3.125;" width="18.75" x="1507.8125" y="226.0254"/><text fill="#000000" font-family="sans-serif" font-size="37.5" lengthAdjust="spacing" textLength="365.625" x="1545.3125" y="246.0571">actualSesion: Sesion</text><rect fill="none" height="18.75" style="stroke:#C82930;stroke-width:3.125;" width="18.75" x="1507.8125" y="273.1934"/><text fill="#000000" font-family="sans-serif" font-size="37.5" lengthAdjust="spacing" textLength="393.75" x="1545.3125" y="293.2251">empleados: Empleado</text><rect fill="none" height="18.75" style="stroke:#C82930;stroke-width:3.125;" width="18.75" x="1507.8125" y="320.3613"/><text fill="#000000" font-family="sans-serif" font-size="37.5" lengthAdjust="spacing" textLength="546.875" x="1545.3125" y="340.3931">empleadoLogueado: Empleado</text><rect fill="none" height="18.75" style="stroke:#C82930;stroke-width:3.125;" width="18.75" x="1507.8125" y="367.5293"/><text fill="#000000" font-family="sans-serif" font-size="37.5" lengthAdjust="spacing" textLength="715.625" x="1545.3125" y="387.561">cmEmpleadoLogueado: ComisionMedica</text><rect fill="none" height="18.75" style="stroke:#C82930;stroke-width:3.125;" width="18.75" x="1507.8125" y="414.6973"/><text fill="#000000" font-family="sans-serif" font-size="37.5" lengthAdjust="spacing" textLength="196.875" x="1545.3125" y="434.729">nombreCm</text><rect fill="none" height="18.75" style="stroke:#C82930;stroke-width:3.125;" width="18.75" x="1507.8125" y="461.8652"/><text fill="#000000" font-family="sans-serif" font-size="37.5" lengthAdjust="spacing" textLength="243.75" x="1545.3125" y="481.897">numeroBolsin</text><rect fill="none" height="18.75" style="stroke:#C82930;stroke-width:3.125;" width="18.75" x="1507.8125" y="509.0332"/><text fill="#000000" font-family="sans-serif" font-size="37.5" lengthAdjust="spacing" textLength="321.875" x="1545.3125" y="529.0649">bolsines: Bolsines</text><rect fill="none" height="18.75" style="stroke:#C82930;stroke-width:3.125;" width="18.75" x="1507.8125" y="556.2012"/><text fill="#000000" font-family="sans-serif" font-size="37.5" lengthAdjust="spacing" textLength="562.5" x="1545.3125" y="576.2329">bolsinesEnviadoEnCM: Bolsines</text><rect fill="none" height="18.75" style="stroke:#C82930;stroke-width:3.125;" width="18.75" x="1507.8125" y="603.3691"/><text fill="#000000" font-family="sans-serif" font-size="37.5" lengthAdjust="spacing" textLength="187.5" x="1545.3125" y="623.4009">cmDestino</text><rect fill="none" height="18.75" style="stroke:#C82930;stroke-width:3.125;" width="18.75" x="1507.8125" y="650.5371"/><text fill="#000000" font-family="sans-serif" font-size="37.5" lengthAdjust="spacing" textLength="275" x="1545.3125" y="670.5688">ubicacionBolsin</text><rect fill="none" height="18.75" style="stroke:#C82930;stroke-width:3.125;" width="18.75" x="1507.8125" y="697.7051"/><text fill="#000000" font-family="sans-serif" font-size="37.5" lengthAdjust="spacing" textLength="100" x="1545.3125" y="717.7368">mapa</text><rect fill="none" height="18.75" style="stroke:#C82930;stroke-width:3.125;" width="18.75" x="1507.8125" y="744.873"/><text fill="#000000" font-family="sans-serif" font-size="37.5" lengthAdjust="spacing" textLength="446.875" x="1545.3125" y="764.9048">cmGCM: ComisionMedica</text><rect fill="none" height="18.75" style="stroke:#C82930;stroke-width:3.125;" width="18.75" x="1507.8125" y="792.041"/><text fill="#000000" font-family="sans-serif" font-size="37.5" lengthAdjust="spacing" textLength="181.25" x="1545.3125" y="812.0728">emailGCM</text><line style="stroke:#1565C0;stroke-width:1.5625;" x1="1485.9375" x2="2276.5625" y1="832.8125" y2="832.8125"/><ellipse cx="1517.1875" cy="873.584" fill="#84BE84" rx="9.375" ry="9.375" style="stroke:#038048;stroke-width:3.125;"/><text fill="#000000" font-family="sans-serif" font-size="37.5" lengthAdjust="spacing" textLength="356.25" x="1545.3125" y="884.2407">consultarUbicacion()</text><ellipse cx="1517.1875" cy="920.752" fill="#84BE84" rx="9.375" ry="9.375" style="stroke:#038048;stroke-width:3.125;"/><text fill="#000000" font-family="sans-serif" font-size="37.5" lengthAdjust="spacing" textLength="496.875" x="1545.3125" y="931.4087">buscarEmpleadoLogueado()</text><ellipse cx="1517.1875" cy="967.9199" fill="#84BE84" rx="9.375" ry="9.375" style="stroke:#038048;stroke-width:3.125;"/><text fill="#000000" font-family="sans-serif" font-size="37.5" lengthAdjust="spacing" textLength="553.125" x="1545.3125" y="978.5767">buscarCMEmpleadoLogueado()</text><ellipse cx="1517.1875" cy="1015.0879" fill="#84BE84" rx="9.375" ry="9.375" style="stroke:#038048;stroke-width:3.125;"/><text fill="#000000" font-family="sans-serif" font-size="37.5" lengthAdjust="spacing" textLength="559.375" x="1545.3125" y="1025.7446">buscarBolsinesEnviadosEnCM()</text><ellipse cx="1517.1875" cy="1062.2559" fill="#84BE84" rx="9.375" ry="9.375" style="stroke:#038048;stroke-width:3.125;"/><text fill="#000000" font-family="sans-serif" font-size="37.5" lengthAdjust="spacing" textLength="400" x="1545.3125" y="1072.9126">buscarDatosBolsines()</text><ellipse cx="1517.1875" cy="1109.4238" fill="#84BE84" rx="9.375" ry="9.375" style="stroke:#038048;stroke-width:3.125;"/><text fill="#000000" font-family="sans-serif" font-size="37.5" lengthAdjust="spacing" textLength="356.25" x="1545.3125" y="1120.0806">buscarLocalizacion()</text><ellipse cx="1517.1875" cy="1156.5918" fill="#84BE84" rx="9.375" ry="9.375" style="stroke:#038048;stroke-width:3.125;"/><text fill="#000000" font-family="sans-serif" font-size="37.5" lengthAdjust="spacing" textLength="237.5" x="1545.3125" y="1167.2485">buscarMapa()</text><ellipse cx="1517.1875" cy="1203.7598" fill="#84BE84" rx="9.375" ry="9.375" style="stroke:#038048;stroke-width:3.125;"/><text fill="#000000" font-family="sans-serif" font-size="37.5" lengthAdjust="spacing" textLength="228.125" x="1545.3125" y="1214.4165">buscarGCM()</text><ellipse cx="1517.1875" cy="1250.9277" fill="#84BE84" rx="9.375" ry="9.375" style="stroke:#038048;stroke-width:3.125;"/><text fill="#000000" font-family="sans-serif" font-size="37.5" lengthAdjust="spacing" textLength="328.125" x="1545.3125" y="1261.5845">buscarEmailGCM()</text><ellipse cx="1517.1875" cy="1298.0957" fill="#84BE84" rx="9.375" ry="9.375" style="stroke:#038048;stroke-width:3.125;"/><text fill="#000000" font-family="sans-serif" font-size="37.5" lengthAdjust="spacing" textLength="496.875" x="1545.3125" y="1308.7524">tomarSeleccionBolsinMapa()</text><ellipse cx="1517.1875" cy="1345.2637" fill="#84BE84" rx="9.375" ry="9.375" style="stroke:#038048;stroke-width:3.125;"/><text fill="#000000" font-family="sans-serif" font-size="37.5" lengthAdjust="spacing" textLength="581.25" x="1545.3125" y="1355.9204">tomarConfirmacionEnviarCorreo()</text><ellipse cx="1517.1875" cy="1392.4316" fill="#84BE84" rx="9.375" ry="9.375" style="stroke:#038048;stroke-width:3.125;"/><text fill="#000000" font-family="sans-serif" font-size="37.5" lengthAdjust="spacing" textLength="121.875" x="1545.3125" y="1403.0884">finCU()</text></g><!--class PantallaBolsin--><g id="elem_PantallaBolsin"><rect codeLine="61" fill="#E8F5E9" height="788.7695" id="PantallaBolsin" rx="12.5" ry="12.5" style="stroke:#2E7D32;stroke-width:1.5625;" width="662.5" x="1184.375" y="1675"/><ellipse cx="1377.3438" cy="1737.793" fill="#ADD1B2" rx="34.375" ry="34.375" style="stroke:#181818;stroke-width:3.125;"/><path d="M1385.9863,1724.9023 Q1386.4746,1724.2188 1387.0605,1723.877 Q1387.6465,1723.5352 1388.3301,1723.5352 Q1389.502,1723.5352 1390.2344,1724.3652 Q1390.9668,1725.1465 1390.9668,1727.0508 L1390.9668,1731.5918 Q1390.9668,1733.4961 1390.2344,1734.3262 Q1389.502,1735.1563 1388.3301,1735.1563 Q1387.2559,1735.1563 1386.6211,1734.5215 Q1385.9863,1733.9355 1385.6445,1732.3242 Q1385.498,1731.2012 1384.9121,1730.6152 Q1383.8867,1729.4434 1381.9824,1728.7598 Q1380.0781,1728.0762 1378.125,1728.0762 Q1375.7324,1728.0762 1373.7305,1729.1016 Q1371.7773,1730.127 1370.2148,1732.4707 Q1368.7012,1734.8145 1368.7012,1738.0371 L1368.7012,1741.4551 Q1368.7012,1745.3125 1371.4844,1747.9004 Q1374.2676,1750.4395 1379.248,1750.4395 Q1382.1777,1750.4395 1384.2285,1749.6582 Q1385.4492,1749.1699 1386.7676,1747.8027 Q1387.5977,1746.9727 1388.0371,1746.7285 Q1388.5254,1746.4844 1389.1602,1746.4844 Q1390.1855,1746.4844 1390.9668,1747.3145 Q1391.7969,1748.0957 1391.7969,1749.1699 Q1391.7969,1750.2441 1390.7227,1751.5137 Q1389.1602,1753.3203 1386.6699,1754.3457 Q1383.3008,1755.7617 1379.248,1755.7617 Q1374.5117,1755.7617 1370.752,1753.8086 Q1367.6758,1752.2461 1365.5273,1748.9258 Q1363.3789,1745.5566 1363.3789,1741.5527 L1363.3789,1737.9395 Q1363.3789,1733.7891 1365.2832,1730.2246 Q1367.2363,1726.6113 1370.6543,1724.707 Q1374.0723,1722.7539 1377.9297,1722.7539 Q1380.2246,1722.7539 1382.2266,1723.291 Q1384.2773,1723.7793 1385.9863,1724.9023 Z " fill="#000000"/><text fill="#000000" font-family="sans-serif" font-size="37.5" font-style="italic" lengthAdjust="spacing" textLength="209.375" x="1461.7188" y="1729.5532">&#171;boundary&#187;</text><text fill="#000000" font-family="sans-serif" font-size="37.5" lengthAdjust="spacing" textLength="250" x="1441.4063" y="1776.7212">PantallaBolsin</text><line style="stroke:#2E7D32;stroke-width:1.5625;" x1="1187.5" x2="1843.75" y1="1800.5859" y2="1800.5859"/><rect fill="none" height="18.75" style="stroke:#C82930;stroke-width:3.125;" width="18.75" x="1209.375" y="1831.9824"/><text fill="#000000" font-family="sans-serif" font-size="37.5" lengthAdjust="spacing" textLength="462.5" x="1246.875" y="1852.0142">gestorBolsin: GestorBolsin</text><rect fill="none" height="18.75" style="stroke:#C82930;stroke-width:3.125;" width="18.75" x="1209.375" y="1879.1504"/><text fill="#000000" font-family="sans-serif" font-size="37.5" lengthAdjust="spacing" textLength="368.75" x="1246.875" y="1899.1821">nombreCMEmpleado</text><rect fill="none" height="18.75" style="stroke:#C82930;stroke-width:3.125;" width="18.75" x="1209.375" y="1926.3184"/><text fill="#000000" font-family="sans-serif" font-size="37.5" lengthAdjust="spacing" textLength="100" x="1246.875" y="1946.3501">mapa</text><rect fill="none" height="18.75" style="stroke:#C82930;stroke-width:3.125;" width="18.75" x="1209.375" y="1973.4863"/><text fill="#000000" font-family="sans-serif" font-size="37.5" lengthAdjust="spacing" textLength="340.625" x="1246.875" y="1993.5181">bolsinSeleccionado</text><rect fill="none" height="18.75" style="stroke:#C82930;stroke-width:3.125;" width="18.75" x="1209.375" y="2020.6543"/><text fill="#000000" font-family="sans-serif" font-size="37.5" lengthAdjust="spacing" textLength="446.875" x="1246.875" y="2040.686">confirmacionEnviarCorreo</text><line style="stroke:#2E7D32;stroke-width:1.5625;" x1="1187.5" x2="1843.75" y1="2061.4258" y2="2061.4258"/><ellipse cx="1218.75" cy="2102.1973" fill="#84BE84" rx="9.375" ry="9.375" style="stroke:#038048;stroke-width:3.125;"/><text fill="#000000" font-family="sans-serif" font-size="37.5" lengthAdjust="spacing" textLength="481.25" x="1246.875" y="2112.854">opcionConsultarUbicacion()</text><ellipse cx="1218.75" cy="2149.3652" fill="#84BE84" rx="9.375" ry="9.375" style="stroke:#038048;stroke-width:3.125;"/><text fill="#000000" font-family="sans-serif" font-size="37.5" lengthAdjust="spacing" textLength="303.125" x="1246.875" y="2160.022">habilitarPantalla()</text><ellipse cx="1218.75" cy="2196.5332" fill="#84BE84" rx="9.375" ry="9.375" style="stroke:#038048;stroke-width:3.125;"/><text fill="#000000" font-family="sans-serif" font-size="37.5" lengthAdjust="spacing" textLength="356.25" x="1246.875" y="2207.1899">mostrarNombreCM()</text><ellipse cx="1218.75" cy="2243.7012" fill="#84BE84" rx="9.375" ry="9.375" style="stroke:#038048;stroke-width:3.125;"/><text fill="#000000" font-family="sans-serif" font-size="37.5" lengthAdjust="spacing" textLength="446.875" x="1246.875" y="2254.3579">mostrarMapaPosiciones()</text><ellipse cx="1218.75" cy="2290.8691" fill="#84BE84" rx="9.375" ry="9.375" style="stroke:#038048;stroke-width:3.125;"/><text fill="#000000" font-family="sans-serif" font-size="37.5" lengthAdjust="spacing" textLength="475" x="1246.875" y="2301.5259">habilitarFormasBusqueda()</text><ellipse cx="1218.75" cy="2338.0371" fill="#84BE84" rx="9.375" ry="9.375" style="stroke:#038048;stroke-width:3.125;"/><text fill="#000000" font-family="sans-serif" font-size="37.5" lengthAdjust="spacing" textLength="496.875" x="1246.875" y="2348.6938">tomarSeleccionBolsinMapa()</text><ellipse cx="1218.75" cy="2385.2051" fill="#84BE84" rx="9.375" ry="9.375" style="stroke:#038048;stroke-width:3.125;"/><text fill="#000000" font-family="sans-serif" font-size="37.5" lengthAdjust="spacing" textLength="581.25" x="1246.875" y="2395.8618">tomarConfirmacionEnviarCorreo()</text><ellipse cx="1218.75" cy="2432.373" fill="#84BE84" rx="9.375" ry="9.375" style="stroke:#038048;stroke-width:3.125;"/><text fill="#000000" font-family="sans-serif" font-size="37.5" lengthAdjust="spacing" textLength="453.125" x="1246.875" y="2443.0298">mostrarEjecucionExitosa()</text></g><!--class Sesion--><g id="elem_Sesion"><rect codeLine="77" fill="#FFF3E0" height="364.2578" id="Sesion" rx="12.5" ry="12.5" style="stroke:#EF6C00;stroke-width:1.5625;" width="368.75" x="2065.625" y="1885.9375"/><ellipse cx="2178.5938" cy="1948.7305" fill="#ADD1B2" rx="34.375" ry="34.375" style="stroke:#181818;stroke-width:3.125;"/><path d="M2187.2363,1935.8398 Q2187.7246,1935.1563 2188.3105,1934.8145 Q2188.8965,1934.4727 2189.5801,1934.4727 Q2190.752,1934.4727 2191.4844,1935.3027 Q2192.2168,1936.084 2192.2168,1937.9883 L2192.2168,1942.5293 Q2192.2168,1944.4336 2191.4844,1945.2637 Q2190.752,1946.0938 2189.5801,1946.0938 Q2188.5059,1946.0938 2187.8711,1945.459 Q2187.2363,1944.873 2186.8945,1943.2617 Q2186.748,1942.1387 2186.1621,1941.5527 Q2185.1367,1940.3809 2183.2324,1939.6973 Q2181.3281,1939.0137 2179.375,1939.0137 Q2176.9824,1939.0137 2174.9805,1940.0391 Q2173.0273,1941.0645 2171.4648,1943.4082 Q2169.9512,1945.752 2169.9512,1948.9746 L2169.9512,1952.3926 Q2169.9512,1956.25 2172.7344,1958.8379 Q2175.5176,1961.377 2180.498,1961.377 Q2183.4277,1961.377 2185.4785,1960.5957 Q2186.6992,1960.1074 2188.0176,1958.7402 Q2188.8477,1957.9102 2189.2871,1957.666 Q2189.7754,1957.4219 2190.4102,1957.4219 Q2191.4355,1957.4219 2192.2168,1958.252 Q2193.0469,1959.0332 2193.0469,1960.1074 Q2193.0469,1961.1816 2191.9727,1962.4512 Q2190.4102,1964.2578 2187.9199,1965.2832 Q2184.5508,1966.6992 2180.498,1966.6992 Q2175.7617,1966.6992 2172.002,1964.7461 Q2168.9258,1963.1836 2166.7773,1959.8633 Q2164.6289,1956.4941 2164.6289,1952.4902 L2164.6289,1948.877 Q2164.6289,1944.7266 2166.5332,1941.1621 Q2168.4863,1937.5488 2171.9043,1935.6445 Q2175.3223,1933.6914 2179.1797,1933.6914 Q2181.4746,1933.6914 2183.4766,1934.2285 Q2185.5273,1934.7168 2187.2363,1935.8398 Z " fill="#000000"/><text fill="#000000" font-family="sans-serif" font-size="37.5" font-style="italic" lengthAdjust="spacing" textLength="134.375" x="2230.7813" y="1940.4907">&#171;entity&#187;</text><text fill="#000000" font-family="sans-serif" font-size="37.5" lengthAdjust="spacing" textLength="121.875" x="2237.0313" y="1987.6587">Sesion</text><line style="stroke:#EF6C00;stroke-width:1.5625;" x1="2068.75" x2="2431.25" y1="2011.5234" y2="2011.5234"/><rect fill="none" height="18.75" style="stroke:#C82930;stroke-width:3.125;" width="18.75" x="2090.625" y="2042.9199"/><text fill="#000000" font-family="sans-serif" font-size="37.5" lengthAdjust="spacing" textLength="268.75" x="2128.125" y="2062.9517">fechaHoraInicio</text><rect fill="none" height="18.75" style="stroke:#C82930;stroke-width:3.125;" width="18.75" x="2090.625" y="2090.0879"/><text fill="#000000" font-family="sans-serif" font-size="37.5" lengthAdjust="spacing" textLength="231.25" x="2128.125" y="2110.1196">fechaHoraFin</text><rect fill="none" height="18.75" style="stroke:#C82930;stroke-width:3.125;" width="18.75" x="2090.625" y="2137.2559"/><text fill="#000000" font-family="sans-serif" font-size="37.5" lengthAdjust="spacing" textLength="287.5" x="2128.125" y="2157.2876">usuario: Usuario</text><line style="stroke:#EF6C00;stroke-width:1.5625;" x1="2068.75" x2="2431.25" y1="2178.0273" y2="2178.0273"/><ellipse cx="2100" cy="2218.7988" fill="#84BE84" rx="9.375" ry="9.375" style="stroke:#038048;stroke-width:3.125;"/><text fill="#000000" font-family="sans-serif" font-size="37.5" lengthAdjust="spacing" textLength="215.625" x="2128.125" y="2229.4556">getUsuario()</text></g><!--class Empleado--><g id="elem_Empleado"><rect codeLine="84" fill="#FFF3E0" height="600.0977" id="Empleado" rx="12.5" ry="12.5" style="stroke:#EF6C00;stroke-width:1.5625;" width="443.75" x="521.875" y="1768.75"/><ellipse cx="643.2813" cy="1831.543" fill="#ADD1B2" rx="34.375" ry="34.375" style="stroke:#181818;stroke-width:3.125;"/><path d="M651.9238,1818.6523 Q652.4121,1817.9688 652.998,1817.627 Q653.584,1817.2852 654.2676,1817.2852 Q655.4395,1817.2852 656.1719,1818.1152 Q656.9043,1818.8965 656.9043,1820.8008 L656.9043,1825.3418 Q656.9043,1827.2461 656.1719,1828.0762 Q655.4395,1828.9063 654.2676,1828.9063 Q653.1934,1828.9063 652.5586,1828.2715 Q651.9238,1827.6855 651.582,1826.0742 Q651.4355,1824.9512 650.8496,1824.3652 Q649.8242,1823.1934 647.9199,1822.5098 Q646.0156,1821.8262 644.0625,1821.8262 Q641.6699,1821.8262 639.668,1822.8516 Q637.7148,1823.877 636.1523,1826.2207 Q634.6387,1828.5645 634.6387,1831.7871 L634.6387,1835.2051 Q634.6387,1839.0625 637.4219,1841.6504 Q640.2051,1844.1895 645.1855,1844.1895 Q648.1152,1844.1895 650.166,1843.4082 Q651.3867,1842.9199 652.7051,1841.5527 Q653.5352,1840.7227 653.9746,1840.4785 Q654.4629,1840.2344 655.0977,1840.2344 Q656.123,1840.2344 656.9043,1841.0645 Q657.7344,1841.8457 657.7344,1842.9199 Q657.7344,1843.9941 656.6602,1845.2637 Q655.0977,1847.0703 652.6074,1848.0957 Q649.2383,1849.5117 645.1855,1849.5117 Q640.4492,1849.5117 636.6895,1847.5586 Q633.6133,1845.9961 631.4648,1842.6758 Q629.3164,1839.3066 629.3164,1835.3027 L629.3164,1831.6895 Q629.3164,1827.5391 631.2207,1823.9746 Q633.1738,1820.3613 636.5918,1818.457 Q640.0098,1816.5039 643.8672,1816.5039 Q646.1621,1816.5039 648.1641,1817.041 Q650.2148,1817.5293 651.9238,1818.6523 Z " fill="#000000"/><text fill="#000000" font-family="sans-serif" font-size="37.5" font-style="italic" lengthAdjust="spacing" textLength="134.375" x="725.4688" y="1823.3032">&#171;entity&#187;</text><text fill="#000000" font-family="sans-serif" font-size="37.5" lengthAdjust="spacing" textLength="178.125" x="703.5938" y="1870.4712">Empleado</text><line style="stroke:#EF6C00;stroke-width:1.5625;" x1="525" x2="962.5" y1="1894.3359" y2="1894.3359"/><rect fill="none" height="18.75" style="stroke:#C82930;stroke-width:3.125;" width="18.75" x="546.875" y="1925.7324"/><text fill="#000000" font-family="sans-serif" font-size="37.5" lengthAdjust="spacing" textLength="137.5" x="584.375" y="1945.7642">apellido</text><rect fill="none" height="18.75" style="stroke:#C82930;stroke-width:3.125;" width="18.75" x="546.875" y="1972.9004"/><text fill="#000000" font-family="sans-serif" font-size="37.5" lengthAdjust="spacing" textLength="96.875" x="584.375" y="1992.9321">email</text><rect fill="none" height="18.75" style="stroke:#C82930;stroke-width:3.125;" width="18.75" x="546.875" y="2020.0684"/><text fill="#000000" font-family="sans-serif" font-size="37.5" lengthAdjust="spacing" textLength="134.375" x="584.375" y="2040.1001">nombre</text><rect fill="none" height="18.75" style="stroke:#C82930;stroke-width:3.125;" width="18.75" x="546.875" y="2067.2363"/><text fill="#000000" font-family="sans-serif" font-size="37.5" lengthAdjust="spacing" textLength="287.5" x="584.375" y="2087.2681">usuario: Usuario</text><rect fill="none" height="18.75" style="stroke:#C82930;stroke-width:3.125;" width="18.75" x="546.875" y="2114.4043"/><text fill="#000000" font-family="sans-serif" font-size="37.5" lengthAdjust="spacing" textLength="362.5" x="584.375" y="2134.436">cm: ComisionMedica</text><line style="stroke:#EF6C00;stroke-width:1.5625;" x1="525" x2="962.5" y1="2155.1758" y2="2155.1758"/><ellipse cx="556.25" cy="2195.9473" fill="#84BE84" rx="9.375" ry="9.375" style="stroke:#038048;stroke-width:3.125;"/><text fill="#000000" font-family="sans-serif" font-size="37.5" lengthAdjust="spacing" textLength="178.125" x="584.375" y="2206.604">getEmail()</text><ellipse cx="556.25" cy="2243.1152" fill="#84BE84" rx="9.375" ry="9.375" style="stroke:#038048;stroke-width:3.125;"/><text fill="#000000" font-family="sans-serif" font-size="37.5" lengthAdjust="spacing" textLength="175" x="584.375" y="2253.772">sosGCM()</text><ellipse cx="556.25" cy="2290.2832" fill="#84BE84" rx="9.375" ry="9.375" style="stroke:#038048;stroke-width:3.125;"/><text fill="#000000" font-family="sans-serif" font-size="37.5" lengthAdjust="spacing" textLength="250" x="584.375" y="2300.9399">esTuUsuario()</text><ellipse cx="556.25" cy="2337.4512" fill="#84BE84" rx="9.375" ry="9.375" style="stroke:#038048;stroke-width:3.125;"/><text fill="#000000" font-family="sans-serif" font-size="37.5" lengthAdjust="spacing" textLength="134.375" x="584.375" y="2348.1079">getCM()</text></g><!--class ComisionMedica--><g id="elem_ComisionMedica"><rect codeLine="96" fill="#FFF3E0" height="458.5938" id="ComisionMedica" rx="12.5" ry="12.5" style="stroke:#EF6C00;stroke-width:1.5625;" width="390.625" x="548.4375" y="2712.5"/><ellipse cx="595.3125" cy="2775.293" fill="#ADD1B2" rx="34.375" ry="34.375" style="stroke:#181818;stroke-width:3.125;"/><path d="M603.9551,2762.4023 Q604.4434,2761.7188 605.0293,2761.377 Q605.6152,2761.0352 606.2988,2761.0352 Q607.4707,2761.0352 608.2031,2761.8652 Q608.9355,2762.6465 608.9355,2764.5508 L608.9355,2769.0918 Q608.9355,2770.9961 608.2031,2771.8262 Q607.4707,2772.6563 606.2988,2772.6563 Q605.2246,2772.6563 604.5898,2772.0215 Q603.9551,2771.4355 603.6133,2769.8242 Q603.4668,2768.7012 602.8809,2768.1152 Q601.8555,2766.9434 599.9512,2766.2598 Q598.0469,2765.5762 596.0938,2765.5762 Q593.7012,2765.5762 591.6992,2766.6016 Q589.7461,2767.627 588.1836,2769.9707 Q586.6699,2772.3145 586.6699,2775.5371 L586.6699,2778.9551 Q586.6699,2782.8125 589.4531,2785.4004 Q592.2363,2787.9395 597.2168,2787.9395 Q600.1465,2787.9395 602.1973,2787.1582 Q603.418,2786.6699 604.7363,2785.3027 Q605.5664,2784.4727 606.0059,2784.2285 Q606.4941,2783.9844 607.1289,2783.9844 Q608.1543,2783.9844 608.9355,2784.8145 Q609.7656,2785.5957 609.7656,2786.6699 Q609.7656,2787.7441 608.6914,2789.0137 Q607.1289,2790.8203 604.6387,2791.8457 Q601.2695,2793.2617 597.2168,2793.2617 Q592.4805,2793.2617 588.7207,2791.3086 Q585.6445,2789.7461 583.4961,2786.4258 Q581.3477,2783.0566 581.3477,2779.0527 L581.3477,2775.4395 Q581.3477,2771.2891 583.252,2767.7246 Q585.2051,2764.1113 588.623,2762.207 Q592.041,2760.2539 595.8984,2760.2539 Q598.1934,2760.2539 600.1953,2760.791 Q602.2461,2761.2793 603.9551,2762.4023 Z " fill="#000000"/><text fill="#000000" font-family="sans-serif" font-size="37.5" font-style="italic" lengthAdjust="spacing" textLength="134.375" x="717.1875" y="2767.0532">&#171;entity&#187;</text><text fill="#000000" font-family="sans-serif" font-size="37.5" lengthAdjust="spacing" textLength="290.625" x="639.0625" y="2814.2212">ComisionMedica</text><line style="stroke:#EF6C00;stroke-width:1.5625;" x1="551.5625" x2="935.9375" y1="2838.0859" y2="2838.0859"/><rect fill="none" height="18.75" style="stroke:#C82930;stroke-width:3.125;" width="18.75" x="573.4375" y="2869.4824"/><text fill="#000000" font-family="sans-serif" font-size="37.5" lengthAdjust="spacing" textLength="115.625" x="610.9375" y="2889.5142">codigo</text><rect fill="none" height="18.75" style="stroke:#C82930;stroke-width:3.125;" width="18.75" x="573.4375" y="2916.6504"/><text fill="#000000" font-family="sans-serif" font-size="37.5" lengthAdjust="spacing" textLength="156.25" x="610.9375" y="2936.6821">direccion</text><rect fill="none" height="18.75" style="stroke:#C82930;stroke-width:3.125;" width="18.75" x="573.4375" y="2963.8184"/><text fill="#000000" font-family="sans-serif" font-size="37.5" lengthAdjust="spacing" textLength="96.875" x="610.9375" y="2983.8501">email</text><rect fill="none" height="18.75" style="stroke:#C82930;stroke-width:3.125;" width="18.75" x="573.4375" y="3010.9863"/><text fill="#000000" font-family="sans-serif" font-size="37.5" lengthAdjust="spacing" textLength="134.375" x="610.9375" y="3031.0181">nombre</text><rect fill="none" height="18.75" style="stroke:#C82930;stroke-width:3.125;" width="18.75" x="573.4375" y="3058.1543"/><text fill="#000000" font-family="sans-serif" font-size="37.5" lengthAdjust="spacing" textLength="137.5" x="610.9375" y="3078.186">telefono</text><line style="stroke:#EF6C00;stroke-width:1.5625;" x1="551.5625" x2="935.9375" y1="3098.9258" y2="3098.9258"/><ellipse cx="582.8125" cy="3139.6973" fill="#84BE84" rx="9.375" ry="9.375" style="stroke:#038048;stroke-width:3.125;"/><text fill="#000000" font-family="sans-serif" font-size="37.5" lengthAdjust="spacing" textLength="218.75" x="610.9375" y="3150.354">getNombre()</text></g><!--class Bolsin--><g id="elem_Bolsin"><rect codeLine="105" fill="#FFF3E0" height="600.0977" id="Bolsin" rx="12.5" ry="12.5" style="stroke:#EF6C00;stroke-width:1.5625;" width="640.625" x="2654.6875" y="1768.75"/><ellipse cx="2900.7813" cy="1831.543" fill="#ADD1B2" rx="34.375" ry="34.375" style="stroke:#181818;stroke-width:3.125;"/><path d="M2909.4238,1818.6523 Q2909.9121,1817.9688 2910.498,1817.627 Q2911.084,1817.2852 2911.7676,1817.2852 Q2912.9395,1817.2852 2913.6719,1818.1152 Q2914.4043,1818.8965 2914.4043,1820.8008 L2914.4043,1825.3418 Q2914.4043,1827.2461 2913.6719,1828.0762 Q2912.9395,1828.9063 2911.7676,1828.9063 Q2910.6934,1828.9063 2910.0586,1828.2715 Q2909.4238,1827.6855 2909.082,1826.0742 Q2908.9355,1824.9512 2908.3496,1824.3652 Q2907.3242,1823.1934 2905.4199,1822.5098 Q2903.5156,1821.8262 2901.5625,1821.8262 Q2899.1699,1821.8262 2897.168,1822.8516 Q2895.2148,1823.877 2893.6523,1826.2207 Q2892.1387,1828.5645 2892.1387,1831.7871 L2892.1387,1835.2051 Q2892.1387,1839.0625 2894.9219,1841.6504 Q2897.7051,1844.1895 2902.6855,1844.1895 Q2905.6152,1844.1895 2907.666,1843.4082 Q2908.8867,1842.9199 2910.2051,1841.5527 Q2911.0352,1840.7227 2911.4746,1840.4785 Q2911.9629,1840.2344 2912.5977,1840.2344 Q2913.623,1840.2344 2914.4043,1841.0645 Q2915.2344,1841.8457 2915.2344,1842.9199 Q2915.2344,1843.9941 2914.1602,1845.2637 Q2912.5977,1847.0703 2910.1074,1848.0957 Q2906.7383,1849.5117 2902.6855,1849.5117 Q2897.9492,1849.5117 2894.1895,1847.5586 Q2891.1133,1845.9961 2888.9648,1842.6758 Q2886.8164,1839.3066 2886.8164,1835.3027 L2886.8164,1831.6895 Q2886.8164,1827.5391 2888.7207,1823.9746 Q2890.6738,1820.3613 2894.0918,1818.457 Q2897.5098,1816.5039 2901.3672,1816.5039 Q2903.6621,1816.5039 2905.6641,1817.041 Q2907.7148,1817.5293 2909.4238,1818.6523 Z " fill="#000000"/><text fill="#000000" font-family="sans-serif" font-size="37.5" font-style="italic" lengthAdjust="spacing" textLength="134.375" x="2958.5938" y="1823.3032">&#171;entity&#187;</text><text fill="#000000" font-family="sans-serif" font-size="37.5" lengthAdjust="spacing" textLength="109.375" x="2971.0938" y="1870.4712">Bolsin</text><line style="stroke:#EF6C00;stroke-width:1.5625;" x1="2657.8125" x2="3292.1875" y1="1894.3359" y2="1894.3359"/><rect fill="none" height="18.75" style="stroke:#C82930;stroke-width:3.125;" width="18.75" x="2679.6875" y="1925.7324"/><text fill="#000000" font-family="sans-serif" font-size="37.5" lengthAdjust="spacing" textLength="93.75" x="2717.1875" y="1945.7642">fecha</text><rect fill="none" height="18.75" style="stroke:#C82930;stroke-width:3.125;" width="18.75" x="2679.6875" y="1972.9004"/><text fill="#000000" font-family="sans-serif" font-size="37.5" lengthAdjust="spacing" textLength="243.75" x="2717.1875" y="1992.9321">numeroBolsin</text><rect fill="none" height="18.75" style="stroke:#C82930;stroke-width:3.125;" width="18.75" x="2679.6875" y="2020.0684"/><text fill="#000000" font-family="sans-serif" font-size="37.5" lengthAdjust="spacing" textLength="275" x="2717.1875" y="2040.1001">numeroPrecinto</text><rect fill="none" height="18.75" style="stroke:#C82930;stroke-width:3.125;" width="18.75" x="2679.6875" y="2067.2363"/><text fill="#000000" font-family="sans-serif" font-size="37.5" lengthAdjust="spacing" textLength="87.5" x="2717.1875" y="2087.2681">peso</text><rect fill="none" height="18.75" style="stroke:#C82930;stroke-width:3.125;" width="18.75" x="2679.6875" y="2114.4043"/><text fill="#000000" font-family="sans-serif" font-size="37.5" lengthAdjust="spacing" textLength="528.125" x="2717.1875" y="2134.436">cambioEstado: CambioEstado</text><line style="stroke:#EF6C00;stroke-width:1.5625;" x1="2657.8125" x2="3292.1875" y1="2155.1758" y2="2155.1758"/><ellipse cx="2689.0625" cy="2195.9473" fill="#84BE84" rx="9.375" ry="9.375" style="stroke:#038048;stroke-width:3.125;"/><text fill="#000000" font-family="sans-serif" font-size="37.5" lengthAdjust="spacing" textLength="328.125" x="2717.1875" y="2206.604">getNumeroBolsin()</text><ellipse cx="2689.0625" cy="2243.1152" fill="#84BE84" rx="9.375" ry="9.375" style="stroke:#038048;stroke-width:3.125;"/><text fill="#000000" font-family="sans-serif" font-size="37.5" lengthAdjust="spacing" textLength="228.125" x="2717.1875" y="2253.772">sosEnviado()</text><ellipse cx="2689.0625" cy="2290.2832" fill="#84BE84" rx="9.375" ry="9.375" style="stroke:#038048;stroke-width:3.125;"/><text fill="#000000" font-family="sans-serif" font-size="37.5" lengthAdjust="spacing" textLength="506.25" x="2717.1875" y="2300.9399">buscarCambioEstadoActual()</text><ellipse cx="2689.0625" cy="2337.4512" fill="#84BE84" rx="9.375" ry="9.375" style="stroke:#038048;stroke-width:3.125;"/><text fill="#000000" font-family="sans-serif" font-size="37.5" lengthAdjust="spacing" textLength="559.375" x="2717.1875" y="2348.1079">esCMOrigenIgualCMEmpleado()</text></g><!--class CambioEstado--><g id="elem_CambioEstado"><rect codeLine="117" fill="#FFF3E0" height="458.5938" id="CambioEstado" rx="12.5" ry="12.5" style="stroke:#EF6C00;stroke-width:1.5625;" width="550" x="2700" y="2712.5"/><ellipse cx="2832.6563" cy="2775.293" fill="#ADD1B2" rx="34.375" ry="34.375" style="stroke:#181818;stroke-width:3.125;"/><path d="M2841.2988,2762.4023 Q2841.7871,2761.7188 2842.373,2761.377 Q2842.959,2761.0352 2843.6426,2761.0352 Q2844.8145,2761.0352 2845.5469,2761.8652 Q2846.2793,2762.6465 2846.2793,2764.5508 L2846.2793,2769.0918 Q2846.2793,2770.9961 2845.5469,2771.8262 Q2844.8145,2772.6563 2843.6426,2772.6563 Q2842.5684,2772.6563 2841.9336,2772.0215 Q2841.2988,2771.4355 2840.957,2769.8242 Q2840.8105,2768.7012 2840.2246,2768.1152 Q2839.1992,2766.9434 2837.2949,2766.2598 Q2835.3906,2765.5762 2833.4375,2765.5762 Q2831.0449,2765.5762 2829.043,2766.6016 Q2827.0898,2767.627 2825.5273,2769.9707 Q2824.0137,2772.3145 2824.0137,2775.5371 L2824.0137,2778.9551 Q2824.0137,2782.8125 2826.7969,2785.4004 Q2829.5801,2787.9395 2834.5605,2787.9395 Q2837.4902,2787.9395 2839.541,2787.1582 Q2840.7617,2786.6699 2842.0801,2785.3027 Q2842.9102,2784.4727 2843.3496,2784.2285 Q2843.8379,2783.9844 2844.4727,2783.9844 Q2845.498,2783.9844 2846.2793,2784.8145 Q2847.1094,2785.5957 2847.1094,2786.6699 Q2847.1094,2787.7441 2846.0352,2789.0137 Q2844.4727,2790.8203 2841.9824,2791.8457 Q2838.6133,2793.2617 2834.5605,2793.2617 Q2829.8242,2793.2617 2826.0645,2791.3086 Q2822.9883,2789.7461 2820.8398,2786.4258 Q2818.6914,2783.0566 2818.6914,2779.0527 L2818.6914,2775.4395 Q2818.6914,2771.2891 2820.5957,2767.7246 Q2822.5488,2764.1113 2825.9668,2762.207 Q2829.3848,2760.2539 2833.2422,2760.2539 Q2835.5371,2760.2539 2837.5391,2760.791 Q2839.5898,2761.2793 2841.2988,2762.4023 Z " fill="#000000"/><text fill="#000000" font-family="sans-serif" font-size="37.5" font-style="italic" lengthAdjust="spacing" textLength="134.375" x="2957.9688" y="2767.0532">&#171;entity&#187;</text><text fill="#000000" font-family="sans-serif" font-size="37.5" lengthAdjust="spacing" textLength="259.375" x="2895.4688" y="2814.2212">CambioEstado</text><line style="stroke:#EF6C00;stroke-width:1.5625;" x1="2703.125" x2="3246.875" y1="2838.0859" y2="2838.0859"/><rect fill="none" height="18.75" style="stroke:#C82930;stroke-width:3.125;" width="18.75" x="2725" y="2869.4824"/><text fill="#000000" font-family="sans-serif" font-size="37.5" lengthAdjust="spacing" textLength="184.375" x="2762.5" y="2889.5142">fechaInicio</text><rect fill="none" height="18.75" style="stroke:#C82930;stroke-width:3.125;" width="18.75" x="2725" y="2916.6504"/><text fill="#000000" font-family="sans-serif" font-size="37.5" lengthAdjust="spacing" textLength="146.875" x="2762.5" y="2936.6821">fechaFin</text><rect fill="none" height="18.75" style="stroke:#C82930;stroke-width:3.125;" width="18.75" x="2725" y="2963.8184"/><text fill="#000000" font-family="sans-serif" font-size="37.5" lengthAdjust="spacing" textLength="468.75" x="2762.5" y="2983.8501">responsableCE: Empleado</text><rect fill="none" height="18.75" style="stroke:#C82930;stroke-width:3.125;" width="18.75" x="2725" y="3010.9863"/><text fill="#000000" font-family="sans-serif" font-size="37.5" lengthAdjust="spacing" textLength="259.375" x="2762.5" y="3031.0181">estado: Estado</text><line style="stroke:#EF6C00;stroke-width:1.5625;" x1="2703.125" x2="3246.875" y1="3051.7578" y2="3051.7578"/><ellipse cx="2734.375" cy="3092.5293" fill="#84BE84" rx="9.375" ry="9.375" style="stroke:#038048;stroke-width:3.125;"/><text fill="#000000" font-family="sans-serif" font-size="37.5" lengthAdjust="spacing" textLength="193.75" x="2762.5" y="3103.186">sosActual()</text><ellipse cx="2734.375" cy="3139.6973" fill="#84BE84" rx="9.375" ry="9.375" style="stroke:#038048;stroke-width:3.125;"/><text fill="#000000" font-family="sans-serif" font-size="37.5" lengthAdjust="spacing" textLength="228.125" x="2762.5" y="3150.354">sosEnviado()</text></g><!--class Estado--><g id="elem_Estado"><rect codeLine="126" fill="#FFF3E0" height="364.2578" id="Estado" rx="12.5" ry="12.5" style="stroke:#EF6C00;stroke-width:1.5625;" width="287.5" x="3468.75" y="2759.375"/><ellipse cx="3545.1563" cy="2822.168" fill="#ADD1B2" rx="34.375" ry="34.375" style="stroke:#181818;stroke-width:3.125;"/><path d="M3553.7988,2809.2773 Q3554.2871,2808.5938 3554.873,2808.252 Q3555.459,2807.9102 3556.1426,2807.9102 Q3557.3145,2807.9102 3558.0469,2808.7402 Q3558.7793,2809.5215 3558.7793,2811.4258 L3558.7793,2815.9668 Q3558.7793,2817.8711 3558.0469,2818.7012 Q3557.3145,2819.5313 3556.1426,2819.5313 Q3555.0684,2819.5313 3554.4336,2818.8965 Q3553.7988,2818.3105 3553.457,2816.6992 Q3553.3105,2815.5762 3552.7246,2814.9902 Q3551.6992,2813.8184 3549.7949,2813.1348 Q3547.8906,2812.4512 3545.9375,2812.4512 Q3543.5449,2812.4512 3541.543,2813.4766 Q3539.5898,2814.502 3538.0273,2816.8457 Q3536.5137,2819.1895 3536.5137,2822.4121 L3536.5137,2825.8301 Q3536.5137,2829.6875 3539.2969,2832.2754 Q3542.0801,2834.8145 3547.0605,2834.8145 Q3549.9902,2834.8145 3552.041,2834.0332 Q3553.2617,2833.5449 3554.5801,2832.1777 Q3555.4102,2831.3477 3555.8496,2831.1035 Q3556.3379,2830.8594 3556.9727,2830.8594 Q3557.998,2830.8594 3558.7793,2831.6895 Q3559.6094,2832.4707 3559.6094,2833.5449 Q3559.6094,2834.6191 3558.5352,2835.8887 Q3556.9727,2837.6953 3554.4824,2838.7207 Q3551.1133,2840.1367 3547.0605,2840.1367 Q3542.3242,2840.1367 3538.5645,2838.1836 Q3535.4883,2836.6211 3533.3398,2833.3008 Q3531.1914,2829.9316 3531.1914,2825.9277 L3531.1914,2822.3145 Q3531.1914,2818.1641 3533.0957,2814.5996 Q3535.0488,2810.9863 3538.4668,2809.082 Q3541.8848,2807.1289 3545.7422,2807.1289 Q3548.0371,2807.1289 3550.0391,2807.666 Q3552.0898,2808.1543 3553.7988,2809.2773 Z " fill="#000000"/><text fill="#000000" font-family="sans-serif" font-size="37.5" font-style="italic" lengthAdjust="spacing" textLength="134.375" x="3589.2188" y="2813.9282">&#171;entity&#187;</text><text fill="#000000" font-family="sans-serif" font-size="37.5" lengthAdjust="spacing" textLength="121.875" x="3595.4688" y="2861.0962">Estado</text><line style="stroke:#EF6C00;stroke-width:1.5625;" x1="3471.875" x2="3753.125" y1="2884.9609" y2="2884.9609"/><rect fill="none" height="18.75" style="stroke:#C82930;stroke-width:3.125;" width="18.75" x="3493.75" y="2916.3574"/><text fill="#000000" font-family="sans-serif" font-size="37.5" lengthAdjust="spacing" textLength="118.75" x="3531.25" y="2936.3892">ambito</text><rect fill="none" height="18.75" style="stroke:#C82930;stroke-width:3.125;" width="18.75" x="3493.75" y="2963.5254"/><text fill="#000000" font-family="sans-serif" font-size="37.5" lengthAdjust="spacing" textLength="134.375" x="3531.25" y="2983.5571">nombre</text><rect fill="none" height="18.75" style="stroke:#C82930;stroke-width:3.125;" width="18.75" x="3493.75" y="3010.6934"/><text fill="#000000" font-family="sans-serif" font-size="37.5" lengthAdjust="spacing" textLength="200" x="3531.25" y="3030.7251">descripcion</text><line style="stroke:#EF6C00;stroke-width:1.5625;" x1="3471.875" x2="3753.125" y1="3051.4648" y2="3051.4648"/><ellipse cx="3503.125" cy="3092.2363" fill="#84BE84" rx="9.375" ry="9.375" style="stroke:#038048;stroke-width:3.125;"/><text fill="#000000" font-family="sans-serif" font-size="37.5" lengthAdjust="spacing" textLength="206.25" x="3531.25" y="3102.8931">esEnviado()</text></g><!--class Rol--><g id="elem_Rol"><rect codeLine="133" fill="#FFF3E0" height="317.0898" id="Rol" rx="12.5" ry="12.5" style="stroke:#EF6C00;stroke-width:1.5625;" width="281.25" x="21.875" y="1910.9375"/><ellipse cx="95.4688" cy="1973.7305" fill="#ADD1B2" rx="34.375" ry="34.375" style="stroke:#181818;stroke-width:3.125;"/><path d="M104.1113,1960.8398 Q104.5996,1960.1563 105.1855,1959.8145 Q105.7715,1959.4727 106.4551,1959.4727 Q107.627,1959.4727 108.3594,1960.3027 Q109.0918,1961.084 109.0918,1962.9883 L109.0918,1967.5293 Q109.0918,1969.4336 108.3594,1970.2637 Q107.627,1971.0938 106.4551,1971.0938 Q105.3809,1971.0938 104.7461,1970.459 Q104.1113,1969.873 103.7695,1968.2617 Q103.623,1967.1387 103.0371,1966.5527 Q102.0117,1965.3809 100.1074,1964.6973 Q98.2031,1964.0137 96.25,1964.0137 Q93.8574,1964.0137 91.8555,1965.0391 Q89.9023,1966.0645 88.3398,1968.4082 Q86.8262,1970.752 86.8262,1973.9746 L86.8262,1977.3926 Q86.8262,1981.25 89.6094,1983.8379 Q92.3926,1986.377 97.373,1986.377 Q100.3027,1986.377 102.3535,1985.5957 Q103.5742,1985.1074 104.8926,1983.7402 Q105.7227,1982.9102 106.1621,1982.666 Q106.6504,1982.4219 107.2852,1982.4219 Q108.3105,1982.4219 109.0918,1983.252 Q109.9219,1984.0332 109.9219,1985.1074 Q109.9219,1986.1816 108.8477,1987.4512 Q107.2852,1989.2578 104.7949,1990.2832 Q101.4258,1991.6992 97.373,1991.6992 Q92.6367,1991.6992 88.877,1989.7461 Q85.8008,1988.1836 83.6523,1984.8633 Q81.5039,1981.4941 81.5039,1977.4902 L81.5039,1973.877 Q81.5039,1969.7266 83.4082,1966.1621 Q85.3613,1962.5488 88.7793,1960.6445 Q92.1973,1958.6914 96.0547,1958.6914 Q98.3496,1958.6914 100.3516,1959.2285 Q102.4023,1959.7168 104.1113,1960.8398 Z " fill="#000000"/><text fill="#000000" font-family="sans-serif" font-size="37.5" font-style="italic" lengthAdjust="spacing" textLength="134.375" x="138.9063" y="1965.4907">&#171;entity&#187;</text><text fill="#000000" font-family="sans-serif" font-size="37.5" lengthAdjust="spacing" textLength="59.375" x="176.4063" y="2012.6587">Rol</text><line style="stroke:#EF6C00;stroke-width:1.5625;" x1="25" x2="300" y1="2036.5234" y2="2036.5234"/><rect fill="none" height="18.75" style="stroke:#C82930;stroke-width:3.125;" width="18.75" x="46.875" y="2067.9199"/><text fill="#000000" font-family="sans-serif" font-size="37.5" lengthAdjust="spacing" textLength="134.375" x="84.375" y="2087.9517">nombre</text><rect fill="none" height="18.75" style="stroke:#C82930;stroke-width:3.125;" width="18.75" x="46.875" y="2115.0879"/><text fill="#000000" font-family="sans-serif" font-size="37.5" lengthAdjust="spacing" textLength="200" x="84.375" y="2135.1196">descripcion</text><line style="stroke:#EF6C00;stroke-width:1.5625;" x1="25" x2="300" y1="2155.8594" y2="2155.8594"/><ellipse cx="56.25" cy="2196.6309" fill="#84BE84" rx="9.375" ry="9.375" style="stroke:#038048;stroke-width:3.125;"/><text fill="#000000" font-family="sans-serif" font-size="37.5" lengthAdjust="spacing" textLength="153.125" x="84.375" y="2207.2876">esGCM()</text></g><!--link GestorBolsin to PantallaBolsin--><g id="link_GestorBolsin_PantallaBolsin"><path codeLine="141" d="M1664.8438,1425.6563 C1664.8438,1511.0313 1664.8438,1577 1664.8438,1655.5938 " fill="none" id="GestorBolsin-to-PantallaBolsin" style="stroke:#424242;stroke-width:3.125;stroke-dasharray:7.0,7.0;"/><polygon fill="#424242" points="1664.8438,1674.3438,1677.3438,1646.2188,1664.8438,1658.7188,1652.3438,1646.2188,1664.8438,1674.3438" style="stroke:#424242;stroke-width:3.125;"/><text fill="#000000" font-family="sans-serif" font-size="40.625" lengthAdjust="spacing" textLength="21.875" x="1651.3953" y="1640.9532">1</text></g><!--link GestorBolsin to Sesion--><g id="link_GestorBolsin_Sesion"><path codeLine="142" d="M2136.9688,1425.6563 C2136.9688,1595.75 2136.9688,1744.5938 2136.9688,1866 " fill="none" id="GestorBolsin-to-Sesion" style="stroke:#424242;stroke-width:3.125;stroke-dasharray:7.0,7.0;"/><polygon fill="#424242" points="2136.9688,1884.75,2149.4688,1856.625,2136.9688,1869.125,2124.4688,1856.625,2136.9688,1884.75" style="stroke:#424242;stroke-width:3.125;"/><text fill="#000000" font-family="sans-serif" font-size="40.625" lengthAdjust="spacing" textLength="21.875" x="2099.9851" y="1851.6006">1</text></g><!--link GestorBolsin to Empleado--><g id="link_GestorBolsin_Empleado"><path codeLine="143" d="M1482.5938,725 C1154.7188,725 743.75,725 743.75,725 C743.75,725 743.75,1353.1563 743.75,1749.2813 " fill="none" id="GestorBolsin-to-Empleado" style="stroke:#424242;stroke-width:3.125;stroke-dasharray:7.0,7.0;"/><polygon fill="#424242" points="743.75,1768.0313,756.25,1739.9063,743.75,1752.4063,731.25,1739.9063,743.75,1768.0313" style="stroke:#424242;stroke-width:3.125;"/><text fill="#000000" font-family="sans-serif" font-size="40.625" lengthAdjust="spacing" textLength="62.5" x="678.8574" y="1735.304">1..*</text></g><!--link GestorBolsin to Bolsin--><g id="link_GestorBolsin_Bolsin"><path codeLine="144" d="M2208.3438,1425.4063 C2208.3438,1643.625 2208.3438,1828.125 2208.3438,1828.125 C2208.3438,1828.125 2425.4688,1828.125 2635.5625,1828.125 " fill="none" id="GestorBolsin-to-Bolsin" style="stroke:#424242;stroke-width:3.125;stroke-dasharray:7.0,7.0;"/><polygon fill="#424242" points="2654.3125,1828.125,2626.1875,1815.625,2638.6875,1828.125,2626.1875,1840.625,2654.3125,1828.125" style="stroke:#424242;stroke-width:3.125;"/><text fill="#000000" font-family="sans-serif" font-size="40.625" lengthAdjust="spacing" textLength="62.5" x="2567.0669" y="1801.6557">1..*</text></g><!--link Bolsin to CambioEstado--><g id="link_Bolsin_CambioEstado"><path codeLine="146" d="M2975,2369.3438 C2975,2481.3438 2975,2587.9063 2975,2692.6875 " fill="none" id="Bolsin-to-CambioEstado" style="stroke:#424242;stroke-width:3.125;"/><polygon fill="#424242" points="2975,2711.4375,2987.5,2683.3125,2975,2695.8125,2962.5,2683.3125,2975,2711.4375" style="stroke:#424242;stroke-width:3.125;"/><text fill="#000000" font-family="sans-serif" font-size="40.625" lengthAdjust="spacing" textLength="62.5" x="2909.4238" y="2678.5269">1..*</text></g><!--link CambioEstado to Estado--><g id="link_CambioEstado_Estado"><path codeLine="147" d="M3250.9063,2943.75 C3325.9375,2943.75 3385.4687,2943.75 3449.9063,2943.75 " fill="none" id="CambioEstado-to-Estado" style="stroke:#424242;stroke-width:3.125;"/><polygon fill="#424242" points="3468.6563,2943.75,3440.5313,2931.25,3453.0313,2943.75,3440.5313,2956.25,3468.6563,2943.75" style="stroke:#424242;stroke-width:3.125;"/><text fill="#000000" font-family="sans-serif" font-size="40.625" lengthAdjust="spacing" textLength="21.875" x="3422.113" y="2932.3834">1</text></g><!--link Empleado to ComisionMedica--><g id="link_Empleado_ComisionMedica"><path codeLine="149" d="M743.75,2369.3438 C743.75,2481.3438 743.75,2587.9063 743.75,2692.6875 " fill="none" id="Empleado-to-ComisionMedica" style="stroke:#424242;stroke-width:3.125;"/><polygon fill="#424242" points="743.75,2711.4375,756.25,2683.3125,743.75,2695.8125,731.25,2683.3125,743.75,2711.4375" style="stroke:#424242;stroke-width:3.125;"/><text fill="#000000" font-family="sans-serif" font-size="40.625" lengthAdjust="spacing" textLength="21.875" x="720.7983" y="2678.5269">1</text></g><!--reverse link Rol to Empleado--><g id="link_Rol_Empleado"><path codeLine="150" d="M321.9688,2068.75 C387.4688,2068.75 448.25,2068.75 521.5938,2068.75 " fill="none" id="Rol-backto-Empleado" style="stroke:#424242;stroke-width:3.125;"/><polygon fill="#424242" points="303.2188,2068.75,331.3438,2081.25,318.8438,2068.75,331.3438,2056.25,303.2188,2068.75" style="stroke:#424242;stroke-width:3.125;"/><text fill="#000000" font-family="sans-serif" font-size="40.625" lengthAdjust="spacing" textLength="21.875" x="328.3368" y="2056.7513">1</text></g><!--SRC=[hLRDSjj63BxhANRSGv9sw97jE74z6SzO5Aba9aezSTtxYeIahPSBTdVfnEdaeJ9vXBnOGN99BdyKNseVn0L0u0Fm0TndB0W25gBQYbsXUI9-V5ViGPY2IvPppHbypb5Rf-3Cyep_-8Ri-emzl_cmOYamBYrd2PSYvIbxPBT_hLwKJcVcNgZIHSRINB2p-ToJA4p1GCvU-qBDrNqflF25KYYmZpamGh57tneBbIQe5MXsuSdDdgVuIQWTst9fO3PxLgKO6Iia6fQ3DgW8xHSoeoDg1iQ21hGYnm7mH79ZsBypHd_NMkEd42MzyClBq_A_4iUexAtu0kpaPMrchHQRmaAdg0tNGFXJN_fr6EdDcqsP5DUFLrSkwe8dzxigLHSwkeZFezzh7UeKj9EVHg-NPvC-4mgfKVx4vLby6Y_7Ba_ENvs7yocNeAomFm4Pn_5PD1zxZE9NuRpqw9goXArGekOMCIaaxs0O0MQcC4o3oI6nue7wvFN8L4sQrRrPaGBr0gKHYerp3OZ4od8fUMrooMvwPsV44qk4lmKZa4pgNwU2B9TGKkMIHUvne7cFkwBy7HaaMJGo2J4JfVSrf2BXpb1Xjj4GPisno41Z3-2cEW21MBYdWI9I3u82H2fSZsoIR4bL4gh1LMmeT48WUY4odlFsXLNfPX8hP5n8KbV7tyfUcO8MWBvhd3v_uLIRmYHS3qimK8Vh9mmM_GHDcU70PCajciPke7kFIJNh4yZMbF10j1hvZbowhTXYnlKjI4Yw2lOyLGRLGjLP5RP2JX9D_6sjYFVX7Ps-DaJkyv9Dh8A0xJooN_QetoVIUa14hxKrNrhy7baF87PuCIyLuU5kx_b6I46g9f5Maw6nckiF3jjGNXRl1eqelNdjQ_t5IAZCeZ3_593o_xiF3aJqDoH5PVHP49cutvbw7R3XrWlO5f8zVukQlojt60w4STqL6ZVwc6f1itzNFyogm3kmxkp7QXetYbOkgHmaVMJH7yHUtvlndeXN3VNaH5T8AfQtDJ5eVCQ3-RFeeBRlL1OjyBxdAVW9fcBNW4c5hXltL3AMEhn5XLtScaT-x7PaHZ6hPXpUghNeXg08PHjeEPYsP3pR2AIRGxswlPC7ntFhLz3jg-6wytnSLnyThypX-WyjTg3UxKZU3N6lpDxx1nFkwDX8uZRbyfjAGymt4i9e_4bpgVQIf6G6K7lfTTmzYAe4tTQtrrww1IPQv2qJoZ9CkFw8SihlawvM3KdhwyP7aBnUC_KLedTvE3w-OaSdHyCBmgIDko5Cw8wFVptggdh8mFcUEKr05rOLjDeUqNeT3uWVUnlK89p1hDqPdPkZuQHtDZHEZGEgwkm_]--></g></svg>